<?xml version="1.0" encoding="UTF-8" standalone="no"?>
<!-- Created with Inkscape (http://www.inkscape.org/) -->

<svg
   xmlns:dc="http://purl.org/dc/elements/1.1/"
   xmlns:cc="http://creativecommons.org/ns#"
   xmlns:rdf="http://www.w3.org/1999/02/22-rdf-syntax-ns#"
   xmlns:svg="http://www.w3.org/2000/svg"
   xmlns="http://www.w3.org/2000/svg"
   xmlns:xlink="http://www.w3.org/1999/xlink"
   xmlns:sodipodi="http://sodipodi.sourceforge.net/DTD/sodipodi-0.dtd"
   xmlns:inkscape="http://www.inkscape.org/namespaces/inkscape"
   width="64"
   height="64"
   viewBox="0 0 67.733333 67.733335"
   version="1.1"
   id="svg8423"
   inkscape:version="0.92.1 unknown"
   sodipodi:docname="HaxePunk-icon.svg"
   inkscape:export-filename="/home/ben/Dev/haxepunk/HaxePunk-icon.png"
   inkscape:export-xdpi="384"
   inkscape:export-ydpi="384">
  <defs
     id="defs8417">
    <linearGradient
       inkscape:collect="always"
       id="linearGradient4591">
      <stop
         style="stop-color:#fbc707;stop-opacity:1;"
         offset="0"
         id="stop4587" />
      <stop
         style="stop-color:#ea8220;stop-opacity:1"
         offset="1"
         id="stop4589" />
    </linearGradient>
    <linearGradient
       inkscape:collect="always"
       xlink:href="#linearGradient4591"
       id="linearGradient4593"
       x1="29.633333"
       y1="263.13333"
       x2="9.1562223"
       y2="284.73471"
       gradientUnits="userSpaceOnUse"
       gradientTransform="matrix(0.97982152,0,0,0.97982152,3.7285359,8.4857731)" />
  </defs>
  <sodipodi:namedview
     id="base"
     pagecolor="#ffffff"
     bordercolor="#666666"
     borderopacity="1.0"
     inkscape:pageopacity="0.0"
     inkscape:pageshadow="2"
     inkscape:zoom="2.8"
     inkscape:cx="150.28947"
     inkscape:cy="128.03469"
     inkscape:document-units="px"
     inkscape:current-layer="layer1"
     showgrid="true"
     units="px"
     inkscape:window-width="1859"
     inkscape:window-height="1050"
     inkscape:window-x="61"
     inkscape:window-y="30"
     inkscape:window-maximized="1"
     inkscape:snap-center="true">
    <inkscape:grid
       type="xygrid"
       id="grid8968" />
  </sodipodi:namedview>
  <metadata
     id="metadata8420">
    <rdf:RDF>
      <cc:Work
         rdf:about="">
        <dc:format>image/svg+xml</dc:format>
        <dc:type
           rdf:resource="http://purl.org/dc/dcmitype/StillImage" />
        <dc:title />
      </cc:Work>
    </rdf:RDF>
  </metadata>
  <g
     inkscape:label="Layer 1"
     inkscape:groupmode="layer"
     id="layer1"
     transform="translate(0,-229.26665)">
    <path
       style="color:#000000;font-style:normal;font-variant:normal;font-weight:normal;font-stretch:normal;font-size:medium;line-height:normal;font-family:sans-serif;font-variant-ligatures:normal;font-variant-position:normal;font-variant-caps:normal;font-variant-numeric:normal;font-variant-alternates:normal;font-feature-settings:normal;text-indent:0;text-align:start;text-decoration:none;text-decoration-line:none;text-decoration-style:solid;text-decoration-color:#000000;letter-spacing:normal;word-spacing:normal;text-transform:none;writing-mode:lr-tb;direction:ltr;text-orientation:mixed;dominant-baseline:auto;baseline-shift:baseline;text-anchor:start;white-space:normal;shape-padding:0;clip-rule:nonzero;display:inline;overflow:visible;visibility:visible;opacity:1;isolation:auto;mix-blend-mode:normal;color-interpolation:sRGB;color-interpolation-filters:linearRGB;solid-color:#000000;solid-opacity:1;vector-effect:none;fill:none;fill-opacity:1;fill-rule:nonzero;stroke:#f2f2f2;stroke-width:24;stroke-linecap:round;stroke-linejoin:round;stroke-miterlimit:4;stroke-dasharray:none;stroke-dashoffset:0;stroke-opacity:1;color-rendering:auto;image-rendering:auto;shape-rendering:auto;text-rendering:auto;enable-background:accumulate"
       d="m 215.7793,27.626953 c -1.85138,-0.03024 -3.74156,0.279987 -5.625,0.996094 -3.37299,1.282431 -5.45252,3.347506 -7.43946,5.617187 -0.45989,0.525355 -0.80762,1.134758 -1.21875,1.691407 -2.28262,-1.06715 -4.61096,-1.665426 -6.97656,-1.808594 -3.57533,-0.216189 -7.17628,-0.165778 -10.83594,2.626953 -2.81974,2.151836 -4.23398,4.697339 -5.5664,7.486328 -1.33242,2.789027 -2.39063,5.563126 -2.39063,9.00586 0,3.791319 1.05439,6.446563 2.79688,9.396484 2.387,4.040882 5.92723,6.627634 10.21679,9.699219 4.28956,3.071584 9.04393,5.930253 13.45704,7.65625 3.75903,1.47016 6.53204,2.893177 10.62304,2.132812 4.091,-0.760327 6.24236,-3.373471 8.68164,-6.015625 6.76128,-7.323817 11.95647,-17.743729 12.75586,-27.033203 0.22934,-2.664869 0.36977,-4.922919 -0.31054,-7.447266 -0.68032,-2.524346 -2.11692,-4.510173 -3.59571,-6.267578 -3.78986,-4.504025 -9.01813,-7.651024 -14.57226,-7.736328 z m -1.01758,12.179688 c 1.11871,0.03895 4.36699,0.861624 6.40625,3.285156 1.11753,1.328088 1.1533,1.526021 1.18945,1.660156 0.0363,0.134173 0.13923,1.002224 -0.0586,3.300781 -0.40779,4.738772 -5.06518,14.991016 -9.61914,19.923828 -1.14517,1.240424 -1.84732,1.861731 -2.16992,2.158204 -0.50263,-0.149668 -1.71757,-0.446565 -3.94141,-1.316407 -2.79972,-1.094967 -7.19038,-3.620845 -10.8457,-6.238281 -3.65533,-2.617436 -6.85278,-6.025785 -6.86524,-6.046875 -0.39142,-0.662665 -1.03905,-3.357565 -1.125,-3.337891 0.0147,-0.132207 0.42182,-2.133011 1.21485,-3.792968 0.73063,-1.529363 1.80726,-2.795367 1.89453,-2.949219 0.15876,0.05974 1.54518,-0.442062 2.94726,-0.357422 1.7593,0.106583 3.4948,1.104826 2.99024,0.634766 0.80124,0.746456 1.50114,1.375804 2.28906,1.964843 0.78792,0.58904 1.49988,1.291496 3.56445,1.697266 1.03229,0.202961 2.62318,0.209743 4.11914,-0.509766 1.49596,-0.719584 2.51968,-2.011725 3.00391,-2.982421 0.73567,-1.474729 0.81358,-2.392688 0.80859,-3.148438 0.21102,-0.369746 0.64479,-0.996704 1.17774,-1.605469 1.08535,-1.239798 2.87315,-2.384096 2.67969,-2.310546 0.0631,-0.024 0.18002,-0.03486 0.33984,-0.0293 z m -4.26367,4.099609 c -0.0341,0.167772 -0.0474,0.14002 0,0 z m -52.08203,14.695312 c -3.55577,0 -7.10741,1.333948 -9.78125,4.007813 l -11.08789,11.087891 c -4.84648,4.846362 -5.28539,12.581274 -1.34766,17.970703 l -8.41797,8.417971 c -3.29144,-2.021558 -7.29344,-3.417069 -12.16602,-4.722659 -3.54372,-0.94953 -6.58616,-1.708057 -9.38281,-2.068359 -2.79664,-0.360189 -5.3525,-0.322773 -7.943358,0.326172 -5.181709,1.298494 -8.689173,5.803335 -10.636718,10.451176 l -0.316406,0.74609 -3.417969,0.90039 c -2.302897,0.6045 -3.016759,0.65094 -3.123047,0.70117 -2.625082,-2.46618 -5.633821,-3.62846 -8.72461,-4.20703 -3.260197,-0.61032 -6.64619,-0.85085 -10.291015,1.25586 -1.91308,1.10559 -3.404819,2.4241 -5.359375,4.14844 -1.954553,1.72437 -4.107716,3.76001 -6.171875,5.80859 -2.064159,2.04862 -4.02618,4.09256 -5.601563,5.87695 -0.787691,0.8922 -1.479706,1.71006 -2.082031,2.50977 -0.602324,0.79971 -1.122168,1.17135 -1.757812,3.14453 -1.026426,3.18675 -0.695473,6.14176 0.11914,8.91797 0.725552,2.47268 2.117865,4.74399 3.962891,6.79688 -0.06837,0.0945 -0.181069,0.88066 -0.996094,3.375 -0.842471,2.57841 -1.373217,3.76252 -1.470703,4.03906 -0.137268,0.0577 -0.711732,0.39108 -2.478516,1.1875 -1.851091,0.83301 -3.575247,1.68994 -5.234375,3.07812 -1.659128,1.38819 -3.144286,3.50081 -3.792968,5.75 -1.297365,4.49832 -0.316029,8.38293 0.980468,14.09961 1.21117,5.34032 2.691853,10.06904 4.371094,13.91406 1.67924,3.84499 2.810191,6.9673 7.00586,9.27149 3.536949,1.94245 7.843082,2.29876 11.802734,1.41016 0.06421,0.0873 0.212366,0.15857 1.255859,1.26953 1.090462,1.16099 2.257113,2.31578 3.328125,3.30859 0.468363,0.43412 0.948514,0.75362 1.359375,1.11328 -1.00261,4.55875 -0.649878,9.56756 2.16211,13.39063 2.901377,3.94458 7.22765,6.09247 12.541015,7.86132 7.356809,2.44906 13.101404,3.83518 18.388672,3.625 1.129134,-0.0477 2.221847,-0.41328 3.152344,-1.05468 2.203782,-0.4746 4.515538,-0.72305 6.304688,-2.09766 2.68373,-2.06188 4.39973,-4.9797 5.43359,-8.03125 l 0.41211,-1.2168 3.54297,-0.98242 c 2.26204,-0.62706 3.5753,-0.85266 3.99609,-0.93554 0.0962,0.0797 0.31214,0.23407 1.00196,0.73632 2.85233,2.07644 5.65586,3.67061 9.00586,4.16407 3.34999,0.49345 6.80948,-0.51384 9.48633,-2.13477 4.81073,-2.9133 9.47112,-7.58527 13.42773,-12.37109 1.97831,-2.3929 3.72216,-4.78755 5.07812,-7.10157 1.35597,-2.31397 2.68224,-4.12279 2.5625,-7.83984 -0.14502,-4.48483 -2.11272,-6.97958 -4.57031,-10.29688 l -1.57226,-2.11914 0.84961,-3.01171 c 0.55185,-1.9695 0.73041,-2.39828 0.67382,-2.42579 0.18066,-0.0487 0.18025,-0.0577 0.51368,-0.13671 5.33076,-1.26222 10.21792,-5.64415 11.43554,-11.13868 1.21762,-5.49448 0.11595,-11.33201 -2.11914,-18.76562 -1.25979,-4.18985 -2.39349,-7.43109 -3.95898,-10.19141 l 8.08984,-8.08984 c 5.3894,3.93863 13.12407,3.50111 17.9707,-1.3457 l 11.0879,-11.08008 c 5.34769,-5.34762 5.34753,-14.230398 0,-19.578128 l -27.7129,-27.710937 c -2.67383,-2.673902 -6.23133,-4.007813 -9.7871,-4.007813 z m 0,11.902344 c 0.45119,5e-6 0.90201,0.196938 1.29882,0.59375 l 27.71875,27.712891 c 0.79377,0.793776 0.79366,1.803993 0,2.597653 l -11.08789,11.08789 c -0.79364,0.79367 -1.80401,0.79367 -2.59765,0 l -0.53516,-0.53515 c 0.56767,-4.16148 -0.71034,-8.54234 -3.86523,-11.69727 L 158.26758,89.175781 c -2.67384,-2.673789 -6.23336,-4.007812 -9.78906,-4.007812 -0.64275,0 -1.28222,0.05924 -1.91993,0.146484 l -0.52929,-0.529297 c -0.79373,-0.793776 -0.79352,-1.811994 0,-2.605468 l 11.08593,-11.082032 c 0.39685,-0.396831 0.8496,-0.593754 1.30079,-0.59375 z m -13.85743,29.775394 13.68555,13.68554 -8.87109,8.8711 c -0.36761,-0.0999 -0.73523,-0.19109 -1.09961,-0.25586 -1.38446,-0.24605 -2.71887,-0.38388 -3.99414,-0.40625 -0.63764,-0.0113 -1.25289,0.001 -1.95703,0.082 -0.39667,0.0457 -1.14748,0.37655 -1.70508,0.53125 -0.45131,-0.21581 -1.72311,-1.03973 -3.38086,-2.72461 -1.65065,-1.678 -1.80328,-1.95202 -1.85156,-1.88281 0.0242,-0.10696 0.005,-0.0456 0.0351,-0.16992 0.65666,-2.72365 0.62372,-5.69966 -0.125,-8.4668 z m -42.07812,4.89258 c 1.78709,0.0304 5.11586,0.47121 10.02734,1.7871 2.94166,0.78821 5.25482,1.63375 7.00196,2.42188 -2.56657,5.18267 -1.72123,11.71804 2.55664,15.99609 l 11.08789,11.08008 c 4.36073,4.36044 11.0648,5.16297 16.29101,2.41211 0.54494,1.36619 1.14425,3.05336 1.78711,5.19141 1.9795,6.58359 2.27049,10.99876 1.89063,12.71289 -0.37987,1.71416 -0.0773,1.4914 -2.47266,2.05859 -0.99014,0.23433 -1.90813,0.42086 -3.10156,0.88672 -1.19343,0.46586 -2.75066,1.42758 -3.80078,2.70117 -2.10026,2.54725 -2.27185,4.50668 -3.08594,7.41211 l -1.63086,5.8457 c -0.50119,1.7839 -0.15012,3.69928 0.95117,5.18946 l 3.32227,4.48047 c 1.07558,1.45185 1.63854,2.82282 1.9375,3.47461 -0.13025,0.39212 -0.31029,0.88886 -0.63867,1.44921 -0.88666,1.5131 -2.31706,3.51184 -3.97852,5.52149 -3.32292,4.01934 -7.82459,8.20347 -10.39453,9.75976 -1.11583,0.67567 -1.12006,0.58225 -1.51953,0.52344 -0.39948,-0.059 -1.62335,-0.48665 -3.69141,-1.99219 -1.78216,-1.29739 -4.13253,-2.83536 -7.07812,-3.04882 -2.9456,-0.21355 -5.02173,0.50915 -8.1875,1.38672 l -6.60743,1.83007 c -1.91466,0.52962 -3.443112,1.9725 -4.082027,3.85352 l -1.423828,4.22265 h -0.0078 c -0.519443,1.53321 -0.995117,2.07471 -1.380859,2.3711 -0.385742,0.29631 -0.959492,0.60412 -2.613281,0.66992 -2.573541,0.10243 -7.373042,-0.76528 -14.121094,-3.01172 -4.213024,-1.40254 -6.143855,-2.87322 -6.673828,-3.59375 -0.529977,-0.72053 -0.774304,-1.21428 -0.125,-3.90625 0.398884,-1.65365 0.789975,-3.25063 0.353516,-5.52148 -0.43646,-2.27086 -2.344033,-4.56825 -3.830078,-5.52149 0.386362,0.24756 -0.57721,-0.46149 -1.425782,-1.24804 -0.848572,-0.7866 -1.862292,-1.78217 -2.738281,-2.71485 -1.622048,-1.72717 -2.819844,-3.11296 -5.107422,-4.23828 -2.287582,-1.12528 -5.455597,-0.9347 -7.167969,-0.40625 -1.830897,0.56481 -2.200522,0.51719 -3.757812,-0.33789 1.408955,0.77375 -0.523934,-0.68415 -1.779297,-3.55859 -1.255359,-2.87445 -2.582515,-7.00818 -3.660156,-11.75977 -1.199199,-5.28767 -1.163013,-7.89841 -1.144531,-8.02344 0.239584,-0.19351 1.011778,-0.68693 2.40625,-1.31445 2.518775,-1.13348 4.874742,-2.05078 6.865234,-4.49609 1.990492,-2.44536 2.496381,-4.67445 3.564453,-7.94336 1.008816,-3.08739 1.787113,-4.88704 1.779297,-7.75782 -0.0079,-2.87077 -2.058592,-5.8562 -3.306641,-7.07812 -0.383225,-0.37531 -1.027528,-1.41892 -1.328125,-2.44336 -0.256478,-0.87417 -0.181616,-1.44238 -0.185547,-1.58789 0.311018,-0.40505 0.778762,-0.9693 1.388672,-1.66016 1.31144,-1.48543 3.137839,-3.39642 5.056641,-5.30078 1.918802,-1.90435 3.937125,-3.81513 5.654297,-5.33008 1.59212,-1.40458 3.023317,-2.4567 3.273437,-2.63476 -0.06077,0.12014 1.054511,-0.19145 2.232422,0.0293 1.403668,0.26267 2.808139,1.11622 2.835938,1.14453 1.274585,1.29573 3.979478,3.17913 6.724609,3.36523 2.745128,0.18595 4.637808,-0.43219 7.544922,-1.19531 l 6.28125,-1.6543 c 1.805158,-0.47489 3.286521,-1.76278 4.007812,-3.48437 l 1.462891,-3.47657 c 1.36218,-3.25088 1.46709,-3.19184 2.48633,-3.44726 0.25481,-0.0639 0.67969,-0.1 1.27539,-0.0898 z m -4.478517,34.36328 c -11.359823,3e-5 -20.699268,9.33169 -20.699219,20.6914 3.1e-5,11.35971 9.339498,20.69915 20.699219,20.69922 11.359807,4e-5 20.699207,-9.33943 20.699217,-20.69922 2e-5,-11.35975 -9.33935,-20.69148 -20.699217,-20.6914 z m -10e-7,8.99609 c 6.555228,-5e-5 11.693638,5.13852 11.693638,11.69363 -2e-5,6.55536 -5.13836,11.70681 -11.693638,11.70676 -6.555225,-5e-5 -18.146362,-10.55186 -11.693628,-11.70676 4.179229,-0.748 8.011876,-7.70097 11.693628,-11.69363 z"
       transform="matrix(0.26458334,0,0,0.26458334,0,229.26665)"
       id="path4510"
       inkscape:connector-curvature="0"
       sodipodi:nodetypes="cccccccscscccccccccccccccccccccscccccccccsccccscccccccccccscscccccccccccccccccccccccccccccccccccccccccscccscccccsccccccccccccccccccccccccccsccccccccccccccccccccccsccccccccccccccccccccccccccccccccscccssc" />
    <path
       inkscape:connector-curvature="0"
       style="opacity:1;fill:#a84b38;fill-opacity:1;stroke:#141419;stroke-width:3.17499995;stroke-linecap:round;stroke-linejoin:round;stroke-miterlimit:4;stroke-dasharray:none;stroke-opacity:1"
       inkscape:transform-center-x="-13.565206"
       inkscape:transform-center-y="-13.565193"
       d="m 33.419004,258.38323 4.399552,-4.39958 c 0.812442,-0.81242 2.120548,-0.81242 2.932986,0 l 2.933042,2.93305 c 0.812443,0.81245 0.812443,2.12054 0,2.93302 l -4.399552,4.39955 c -0.812445,0.81239 -2.120549,0.81239 -2.932997,0 l -2.933039,-2.93304 c -0.812435,-0.81247 -0.812435,-2.12057 8e-6,-2.933 z"
       id="rect4569" />
    <path
       inkscape:connector-curvature="0"
       style="opacity:1;fill:#a84b38;fill-opacity:1;stroke:#141419;stroke-width:3.17499995;stroke-linecap:round;stroke-linejoin:round;stroke-miterlimit:4;stroke-dasharray:none;stroke-opacity:1"
       inkscape:transform-center-x="-20.164486"
       inkscape:transform-center-y="-20.164481"
       d="m 37.514808,249.88787 2.933012,-2.93302 c 0.812453,-0.81246 2.120573,-0.81246 2.933015,0 l 7.332559,7.33254 c 0.812443,0.81247 0.812443,2.12057 -7e-6,2.93301 l -2.933014,2.93301 c -0.812442,0.81247 -2.120565,0.81247 -2.933006,0 l -7.332559,-7.33253 c -0.812443,-0.81247 -0.812443,-2.12059 0,-2.93301 z"
       id="rect4573" />
    <path
       style="fill:url(#linearGradient4593);fill-opacity:1;stroke:#141419;stroke-width:3.17499995;stroke-linejoin:round;stroke-miterlimit:4;stroke-dasharray:none;stroke-opacity:1"
       d="m 24.838184,287.83634 c 1.337034,-0.0532 2.08729,-0.66798 2.498268,-1.88103 l 0.378718,-1.11696 1.747882,-0.48509 c 1.642237,-0.45524 1.804945,-0.44315 2.680037,0.19392 1.301854,0.94773 2.133284,1.06995 3.136761,0.46231 1.952804,-1.18258 4.846776,-4.68304 4.810206,-5.81833 -0.01333,-0.41219 -0.336717,-1.07077 -0.898747,-1.82941 l -0.877981,-1.18533 0.432907,-1.54634 c 0.429194,-1.53176 0.443052,-1.54826 1.478502,-1.79347 2.044201,-0.48402 2.42499,-2.20223 1.309885,-5.91095 -0.785696,-2.61308 -1.375207,-3.44981 -2.582327,-3.66439 -0.56448,-0.1003 -1.151157,-0.11059 -1.303308,-0.0229 -0.597834,0.34517 -1.407189,-0.0131 -2.469406,-1.09269 -1.103711,-1.122 -1.109118,-1.13474 -0.893682,-2.02838 0.488184,-2.02485 -0.652561,-3.15932 -4.107872,-4.08516 -3.607884,-0.96672 -4.647428,-0.70601 -5.523127,1.38386 l -0.385815,0.92051 -1.662699,0.43639 c -1.487935,0.39057 -1.723623,0.37411 -2.240541,-0.1514 -0.726986,-0.73945 -2.437544,-1.05941 -3.225368,-0.60405 -1.033523,0.59728 -4.630646,4.16737 -4.833479,4.79701 -0.260731,0.80949 0.109889,2.07331 0.809645,2.75854 0.527902,0.51684 0.528654,0.69876 0.006,2.2983 -0.563918,1.7259 -0.576258,1.74105 -1.903307,2.33823 -1.7334585,0.78006 -1.8950735,1.34008 -1.2309535,4.26841 0.6055815,2.67014 1.4870245,4.68832 2.2243425,5.09324 0.722867,0.39699 1.419281,0.46418 2.226376,0.21521 0.568976,-0.17559 0.828431,-0.0479 1.623297,0.79847 0.52029,0.55396 1.150819,1.13835 1.401034,1.29876 0.351184,0.22527 0.404449,0.50159 0.232923,1.21268 -0.46993,1.94834 0.32053,3.02325 2.841055,3.86235 1.865955,0.62117 3.260905,0.91931 4.300824,0.87797 z m 1.091147,-12.28675 c -2.147642,-1e-5 -3.888653,-1.74103 -3.888659,-3.88868 -9e-6,-2.14762 1.741005,-3.88868 3.888659,-3.88869 2.147662,-1e-5 3.88869,1.74105 3.888687,3.88868 -2e-6,2.14767 -1.741028,3.8887 -3.888687,3.88869 z"
       id="path4500"
       inkscape:connector-curvature="0"
       sodipodi:nodetypes="ccccccccccccccccccccccccccccccccccccscsc" />
    <path
       inkscape:connector-curvature="0"
       id="path5109"
       d="m 54.077003,248.95318 c -1.908393,-0.74638 -4.840938,-2.84626 -5.475793,-3.92098 -0.286047,-0.48426 -0.520097,-1.24001 -0.520097,-1.67944 0,-0.92752 0.783713,-2.56798 1.481066,-3.10015 0.782298,-0.59698 2.844226,-0.47219 3.583897,0.21692 0.763075,0.71091 0.975677,0.75269 0.975677,0.19176 0,-0.64113 1.205131,-2.01776 2.046378,-2.3376 1.063423,-0.40431 2.58683,0.1606 3.563636,1.32147 0.686942,0.81638 0.779111,1.15837 0.666097,2.47161 -0.1597,1.85582 -1.462402,4.59019 -2.959313,6.21164 -1.252954,1.35717 -1.412874,1.3869 -3.361548,0.62477 z"
       style="fill:#ff3366;fill-opacity:1;stroke:#141419;stroke-width:3.17499995;stroke-miterlimit:4;stroke-dasharray:none;stroke-opacity:1" />
  </g>
</svg>
