<?xml version="1.0" encoding="UTF-8" standalone="no"?>
<!-- Created with Inkscape (http://www.inkscape.org/) -->

<svg
   xmlns:dc="http://purl.org/dc/elements/1.1/"
   xmlns:cc="http://creativecommons.org/ns#"
   xmlns:rdf="http://www.w3.org/1999/02/22-rdf-syntax-ns#"
   xmlns:svg="http://www.w3.org/2000/svg"
   xmlns="http://www.w3.org/2000/svg"
   xmlns:xlink="http://www.w3.org/1999/xlink"
   xmlns:sodipodi="http://sodipodi.sourceforge.net/DTD/sodipodi-0.dtd"
   xmlns:inkscape="http://www.inkscape.org/namespaces/inkscape"
   width="256"
   height="256"
   viewBox="0 0 256 256"
   version="1.1"
   id="svg8423"
   inkscape:version="0.92.2 (unknown)"
   sodipodi:docname="HaxePunk-icon.svg"
   inkscape:export-filename="/home/ben/Dev/haxepunk/template/HaxePunk-icon.png"
   inkscape:export-xdpi="1536"
   inkscape:export-ydpi="1536">
  <defs
     id="defs8417">
    <linearGradient
       inkscape:collect="always"
       id="linearGradient4591">
      <stop
         style="stop-color:#fbc707;stop-opacity:1;"
         offset="0"
         id="stop4587" />
      <stop
         style="stop-color:#ea8220;stop-opacity:1"
         offset="1"
         id="stop4589" />
    </linearGradient>
    <linearGradient
       inkscape:collect="always"
       xlink:href="#linearGradient4591"
       id="linearGradient4593"
       x1="29.633333"
       y1="263.13333"
       x2="9.1562223"
       y2="284.73471"
       gradientUnits="userSpaceOnUse"
       gradientTransform="matrix(3.7039853,0,0,3.7039855,14.094855,-742.858)" />
  </defs>
  <sodipodi:namedview
     id="base"
     pagecolor="#ffffff"
     bordercolor="#666666"
     borderopacity="1.0"
     inkscape:pageopacity="0.0"
     inkscape:pageshadow="2"
     inkscape:zoom="1.4"
     inkscape:cx="153.70437"
     inkscape:cy="95.079489"
     inkscape:document-units="px"
     inkscape:current-layer="layer1"
     showgrid="true"
     units="px"
     inkscape:window-width="1551"
     inkscape:window-height="876"
     inkscape:window-x="49"
     inkscape:window-y="24"
     inkscape:window-maximized="1"
     inkscape:snap-center="true">
    <inkscape:grid
       type="xygrid"
       id="grid8968" />
  </sodipodi:namedview>
  <metadata
     id="metadata8420">
    <rdf:RDF>
      <cc:Work
         rdf:about="">
        <dc:format>image/svg+xml</dc:format>
        <dc:type
           rdf:resource="http://purl.org/dc/dcmitype/StillImage" />
        <dc:title></dc:title>
      </cc:Work>
    </rdf:RDF>
  </metadata>
  <g
     inkscape:label="Layer 1"
     inkscape:groupmode="layer"
     id="layer1"
     transform="translate(0,-88.06665)">
    <path
       style="color:#000000;font-style:normal;font-variant:normal;font-weight:normal;font-stretch:normal;font-size:medium;line-height:normal;font-family:sans-serif;font-variant-ligatures:normal;font-variant-position:normal;font-variant-caps:normal;font-variant-numeric:normal;font-variant-alternates:normal;font-feature-settings:normal;text-indent:0;text-align:start;text-decoration:none;text-decoration-line:none;text-decoration-style:solid;text-decoration-color:#000000;letter-spacing:normal;word-spacing:normal;text-transform:none;writing-mode:lr-tb;direction:ltr;text-orientation:mixed;dominant-baseline:auto;baseline-shift:baseline;text-anchor:start;white-space:normal;shape-padding:0;clip-rule:nonzero;display:inline;overflow:visible;visibility:visible;opacity:1;isolation:auto;mix-blend-mode:normal;color-interpolation:sRGB;color-interpolation-filters:linearRGB;solid-color:#000000;solid-opacity:1;vector-effect:none;fill:none;fill-opacity:1;fill-rule:nonzero;stroke:#f2f2f2;stroke-width:24.00468636;stroke-linecap:round;stroke-linejoin:round;stroke-miterlimit:4;stroke-dasharray:none;stroke-dashoffset:0;stroke-opacity:1;color-rendering:auto;image-rendering:auto;shape-rendering:auto;text-rendering:auto;enable-background:accumulate"
       d="m 215.82142,119.38473 c -1.85174,-0.032 -3.74228,0.2796 -5.6261,0.99648 -3.37364,1.28228 -5.45359,3.34812 -7.4409,5.61824 -0.45998,0.52472 -0.80777,1.1356 -1.21906,1.69176 -2.28306,-1.06756 -4.61185,-1.66576 -6.97792,-1.80896 -3.57602,-0.216 -7.17768,-0.1664 -10.83805,2.62744 -2.82029,2.15236 -4.23481,4.69828 -5.56749,7.4878 -1.33262,2.78956 -2.3911,5.56424 -2.3911,9.00764 0,3.79204 1.05454,6.44776 2.79742,9.39832 2.38748,4.04172 5.9284,6.62892 10.21879,9.70108 4.2904,3.07216 9.0457,5.9314 13.45968,7.65776 3.75976,1.46976 6.53331,2.89372 10.6251,2.13328 4.0918,-0.7606 6.24357,-3.37412 8.68334,-6.01684 6.7626,-7.32524 11.9588,-17.74728 12.75835,-27.03856 0.2294,-2.6654 0.36984,-4.92388 -0.3106,-7.44864 -0.68044,-2.52492 -2.11734,-4.51108 -3.5964,-6.26888 -3.79061,-4.50488 -9.0199,-7.65248 -14.57512,-7.73776 z m -1.0178,12.182 c 1.11896,0.0452 4.36784,0.86188 6.40749,3.2858 1.11775,1.32916 1.15359,1.52632 1.18973,1.6606 0.0364,0.136 0.13912,1.00252 -0.059,3.30136 -0.40782,4.73972 -5.06616,14.99392 -9.62102,19.92776 -1.14542,1.23992 -1.84768,1.862 -2.17034,2.15852 -0.50278,-0.1512 -1.71791,-0.44604 -3.94218,-1.31704 -2.80026,-1.09476 -7.19178,-3.62148 -10.84782,-6.23956 -3.65604,-2.61788 -6.85411,-6.02692 -6.86658,-6.04796 -0.39148,-0.66228 -1.03928,-3.35824 -1.12516,-3.33856 0.0148,-0.136 0.42188,-2.13344 1.21512,-3.79372 0.7308,-1.52968 1.80761,-2.79592 1.8949,-2.94984 0.15876,0.0604 1.54548,-0.44152 2.94784,-0.3568 1.75964,0.106 3.49547,1.10532 2.99082,0.63508 0.80142,0.74696 1.50137,1.376 2.28951,1.96512 0.78811,0.58972 1.50016,1.29136 3.56514,1.69764 1.03247,0.2028 2.6237,0.21 4.11995,-0.50956 1.49622,-0.71976 2.52016,-2.01216 3.00449,-2.98296 0.73579,-1.4758 0.81381,-2.3932 0.80883,-3.14908 0.21108,-0.3704 0.64491,-0.99648 1.17792,-1.60572 1.08555,-1.23992 2.8737,-2.3846 2.68022,-2.31112 0.0635,-0.032 0.18008,-0.032 0.33992,-0.032 z m -4.2645,4.10052 c -0.0348,0.168 -0.0469,0.136 0,0 z m -52.09221,14.69812 c -3.55646,0 -7.10879,1.33368 -9.78315,4.0086 l -11.09006,11.09008 c -4.84742,4.8472 -5.28642,12.58376 -1.34792,17.97428 l -8.41961,8.41956 c -3.29209,-2.022 -7.29487,-3.41784 -12.1684,-4.72368 -3.54441,-0.9496 -6.58745,-1.7084 -9.38464,-2.06872 -2.79719,-0.36 -5.35355,-0.3236 -7.94491,0.3268 -5.18272,1.29892 -8.690868,5.8044 -10.638792,10.4532 l -0.31648,0.747 -3.418636,0.9012 c -2.303348,0.60484 -3.017348,0.6502 -3.123656,0.70164 -2.625596,-2.46672 -5.63492,-3.62924 -8.726312,-4.20792 -3.260836,-0.61088 -6.647488,-0.85132 -10.293024,1.25656 -1.913456,1.10536 -3.405484,2.42452 -5.36042,4.14924 -1.954936,1.72472 -4.10852,3.76076 -6.17308,5.80964 -2.064564,2.04908 -4.026968,4.09344 -5.60266,5.87816 -0.787836,0.89216 -1.479988,1.71036 -2.082436,2.51028 -0.60244,0.79988 -1.122392,1.17188 -1.758156,3.14516 -1.026629,3.18736 -0.695612,6.14292 0.11916,8.9196 0.725688,2.4732 2.118276,4.745 3.963664,6.79828 -0.06836,0.0908 -0.18112,0.88008 -0.996284,3.37564 -0.842636,2.57888 -1.373488,3.76332 -1.470992,4.03988 -0.13728,0.0604 -0.711868,0.3916 -2.478998,1.18852 -1.851454,0.8332 -3.575946,1.69024 -5.235397,3.07864 -1.659452,1.38812 -3.1449,3.5016 -3.793709,5.75116 -1.297613,4.49928 -0.316092,8.38464 0.980662,14.10236 1.211409,5.34136 2.692378,10.07108 4.371946,13.91684 1.679568,3.84572 2.81074,6.96868 7.007228,9.27328 3.53764,1.94276 7.844612,2.29916 11.80504,1.4108 0.06428,0.0908 0.2124,0.1588 1.256104,1.27016 1.090684,1.16128 2.257556,2.31624 3.328776,3.30924 0.468452,0.43396 0.948696,0.75304 1.35964,1.11292 -1.0028,4.5596 -0.650008,9.56936 2.162532,13.39316 2.901944,3.9454 7.22906,6.09364 12.543464,7.86296 7.358244,2.44948 13.10396,3.83592 18.392264,3.6256 1.129344,-0.0452 2.22228,-0.41284 3.152956,-1.05548 2.204212,-0.4748 4.516416,-0.72276 6.305916,-2.09804 2.68426,-2.0622 4.40059,-4.98072 5.43465,-8.03276 l 0.41219,-1.21724 3.54366,-0.98288 c 2.26248,-0.62752 3.576,-0.85284 3.99687,-0.936 0.0962,0.0756 0.3122,0.2344 1.00215,0.7364 2.85288,2.07688 5.65696,3.67124 9.00762,4.16496 3.35064,0.49296 6.8108,-0.51412 9.48818,-2.13524 4.81167,-2.91384 9.47297,-7.58672 13.43035,-12.37356 1.97869,-2.39336 3.72289,-4.7884 5.07911,-7.103 1.35621,-2.3144 2.68276,-4.12348 2.563,-7.84132 -0.14516,-4.48564 -2.11313,-6.98092 -4.5712,-10.2988 l -1.57257,-2.11968 0.8498,-3.01224 c 0.55192,-1.96984 0.7305,-2.3988 0.67395,-2.4262 0.18068,-0.0452 0.18024,-0.0604 0.51381,-0.136 5.33179,-1.2626 10.2199,-5.64516 11.43777,-11.14088 1.21785,-5.49548 0.11644,-11.33416 -2.11955,-18.7692 -1.26004,-4.19064 -2.39397,-7.4326 -3.95975,-10.1934 l 8.09141,-8.09144 c 5.39045,3.93936 13.12663,3.50176 17.97421,-1.34576 l 11.09006,-11.08224 c 5.34873,-5.34876 5.34858,-14.23328 0,-19.58208 l -27.71831,-27.71916 c -2.67434,-2.67444 -6.23254,-4.0086 -9.78901,-4.0086 z m 0,11.90468 c 0.45121,0 0.90212,0.1964 1.29905,0.59424 l 27.72416,27.71844 c 0.79386,0.79384 0.79386,1.80424 0,2.59808 l -11.09006,11.09008 c -0.79385,0.79388 -1.80436,0.79388 -2.59816,0 l -0.53528,-0.53528 c 0.56779,-4.1622 -0.71054,-8.544 -3.86599,-11.69944 l -11.08224,-11.09012 c -2.67437,-2.67428 -6.23458,-4.0086 -9.79097,-4.0086 -0.64288,0 -1.28248,0.0604 -1.92031,0.1512 l -0.52939,-0.52924 c -0.79388,-0.79388 -0.79367,-1.8124 0,-2.60596 l 11.0881,-11.08436 c 0.39692,-0.396 0.8498,-0.59424 1.30101,-0.59424 z m -13.86013,29.78124 13.68822,13.68816 -8.87282,8.87292 c -0.36768,-0.106 -0.73537,-0.1904 -1.09983,-0.2556 -1.38473,-0.2464 -2.7194,-0.384 -3.99492,-0.40676 -0.63776,-0.012 -1.25313,0.001 -1.95741,0.0756 -0.39676,0.0452 -1.14771,0.3764 -1.70542,0.53076 -0.45139,-0.2164 -1.72344,-1.04032 -3.38152,-2.72528 -1.65097,-1.67828 -1.80363,-1.95228 -1.85192,-1.88316 0.024,-0.106 0.005,-0.0452 0.0352,-0.1692 0.65679,-2.72408 0.62384,-5.70064 -0.12504,-8.4684 z m -42.08634,4.89348 c 1.78744,0.032 5.11686,0.47176 10.0293,1.78744 2.94224,0.7878 5.25585,1.63412 7.00333,2.4224 -2.56707,5.18364 -1.72157,11.72032 2.55714,15.99912 l 11.09005,11.0824 c 4.36158,4.3612 11.06696,5.16384 16.29419,2.41256 0.54506,1.36696 1.14447,3.05384 1.78746,5.19244 1.97989,6.58476 2.27094,11.00084 1.89099,12.71528 -0.38,1.7146 -0.0771,1.49244 -2.47313,2.05904 -0.99034,0.2344 -1.9085,0.42036 -3.10217,0.8876 -1.19365,0.46572 -2.75119,1.42744 -3.80152,2.70168 -2.10067,2.54776 -2.27229,4.5076 -3.08654,7.41356 l -1.63115,5.84612 c -0.50129,1.78428 -0.15016,3.69996 0.95136,5.19044 l 3.32292,4.48144 c 1.07579,1.4516 1.63886,2.82324 1.93787,3.47528 -0.13036,0.3916 -0.31036,0.88912 -0.63878,1.45008 -0.88684,1.51332 -2.31752,3.51248 -3.9793,5.52252 -3.32357,4.02008 -7.82612,8.20516 -10.39656,9.76172 -1.11604,0.67592 -1.12028,0.58216 -1.51983,0.52316 -0.39956,-0.0604 -1.62366,-0.48688 -3.69213,-1.99248 -1.7825,-1.2974 -4.13333,-2.83596 -7.0795,-3.04948 -2.94617,-0.2132 -5.02271,0.5096 -8.1891,1.3866 l -6.60872,1.8304 c -1.91503,0.52924 -3.44378,1.97288 -4.08282,3.85424 l -1.424104,4.22344 h -0.008 c -0.519544,1.5336 -0.995312,2.07524 -1.381128,2.3716 -0.3858,0.2964 -0.959672,0.60484 -2.613788,0.66984 -2.574044,0.106 -7.374484,-0.76512 -14.123852,-3.01224 -4.213848,-1.40324 -6.145056,-2.87376 -6.675132,-3.59444 -0.530084,-0.72128 -0.774456,-1.2142 -0.12504,-3.90696 0.39896,-1.65412 0.790124,-3.25136 0.3536,-5.52268 -0.436544,-2.2712 -2.344488,-4.56912 -3.830824,-5.52252 0.38644,0.248 -0.577324,-0.4612 -1.426068,-1.24748 -0.848732,-0.78628 -1.862656,-1.78264 -2.738816,-2.71544 -1.622364,-1.72744 -2.820396,-3.1136 -5.10842,-4.23904 -2.288028,-1.125 -5.45666,-0.93448 -7.169368,-0.40676 -1.831252,0.56552 -2.200948,0.51716 -3.758544,-0.3388 1.409236,0.7742 -0.524036,-0.68348 -1.779644,-3.5592 -1.255608,-2.87496 -2.58302,-7.00952 -3.660872,-11.76204 -1.199432,-5.28876 -1.163248,-7.9 -1.144752,-8.02508 0.23964,-0.1936 1.011976,-0.68648 2.406716,-1.314 2.519268,-1.13408 4.875696,-2.05116 6.866576,-4.497 1.99088,-2.44584 2.496868,-4.67544 3.565148,-7.94492 1.009012,-3.088 1.787464,-4.88804 1.779644,-7.75936 -0.008,-2.87136 -2.058992,-5.85732 -3.307284,-7.07952 -0.38332,-0.3752 -1.027736,-1.41988 -1.328388,-2.44388 -0.25652,-0.874 -0.18164,-1.44256 -0.18556,-1.58816 0.31108,-0.40524 0.778916,-0.96928 1.388944,-1.66044 1.311692,-1.4864 3.138452,-3.39712 5.057628,-5.30176 1.91918,-1.9048 3.937896,-3.81596 5.655404,-5.33124 1.592428,-1.40476 3.023904,-2.45716 3.274076,-2.63528 -0.0608,0.1208 1.054724,-0.192 2.232856,0.032 1.403944,0.2632 2.808688,1.11592 2.836492,1.14464 1.27484,1.29588 3.980256,3.17968 6.72592,3.3658 2.745664,0.186 4.638716,-0.43244 7.546396,-1.19608 l 6.282476,-1.65468 c 1.805512,-0.4748 3.287164,-1.76312 4.008596,-3.48496 l 1.463172,-3.47724 c 1.36244,-3.25148 1.46738,-3.19252 2.48681,-3.44788 0.25488,-0.0604 0.67983,-0.106 1.27565,-0.0908 z m -4.479384,34.37 c -11.362044,0 -20.703312,9.33348 -20.703264,20.69544 3.2e-5,11.36196 9.341324,20.70316 20.703264,20.70332 11.362024,0 20.703244,-9.34136 20.703254,-20.70332 2e-5,-11.36196 -9.34117,-20.69544 -20.703254,-20.69544 z m -4e-6,8.9978 c 6.556508,0 11.695918,5.13964 11.695918,11.696 -2e-5,6.55664 -5.13936,11.70912 -11.695918,11.70896 -6.556504,0 -18.149904,-10.55388 -11.695908,-11.70896 4.180044,-0.74852 8.01344,-7.70252 11.695908,-11.696 z"
       id="path4510"
       inkscape:connector-curvature="0"
       sodipodi:nodetypes="cccccccscscccccccccccccccccccccscccccccccsccccscccccccccccscscccccccccccccccccccccccccccccccccccccccccscccscccccsccccccccccccccccccccccccccsccccccccccccccccccccccsccccccccccccccccccccccccccccccccscccssc"
       inkscape:transform-center-x="-132.4019"
       inkscape:transform-center-y="-128.51465" />
    <path
       inkscape:connector-curvature="0"
       style="opacity:1;fill:#a84b38;fill-opacity:1;stroke:#141419;stroke-width:12.00234318;stroke-linecap:round;stroke-linejoin:round;stroke-miterlimit:4;stroke-dasharray:none;stroke-opacity:1"
       inkscape:transform-center-x="-145.736"
       inkscape:transform-center-y="-143.20657"
       d="m 126.3327,201.82085 16.63147,-16.63168 c 3.07125,-3.07108 8.01624,-3.07108 11.08747,0 l 11.08767,11.08768 c 3.07125,3.0714 3.07125,8.01628 0,11.08768 l -16.63147,16.63148 c -3.07126,3.07096 -8.01624,3.07096 -11.0875,0 l -11.08767,-11.08764 c -3.07122,-3.0714 -3.07122,-8.01644 3e-5,-11.08752 z"
       id="rect4569" />
    <path
       inkscape:connector-curvature="0"
       style="opacity:1;fill:#a84b38;fill-opacity:1;stroke:#141419;stroke-width:12.00234318;stroke-linecap:round;stroke-linejoin:round;stroke-miterlimit:4;stroke-dasharray:none;stroke-opacity:1"
       inkscape:transform-center-x="-166.76301"
       inkscape:transform-center-y="-164.23358"
       d="m 141.81592,169.70613 11.08756,-11.08768 c 3.0713,-3.07124 8.01634,-3.07124 11.08758,0 l 27.71902,27.71904 c 3.07126,3.07124 3.07126,8.01628 -2e-5,11.08752 l -11.08757,11.08752 c -3.07125,3.07136 -8.01631,3.07136 -11.08755,0 l -27.71902,-27.71888 c -3.07124,-3.0714 -3.07124,-8.01644 0,-11.08752 z"
       id="rect4573" />
    <path
       style="fill:url(#linearGradient4593);fill-opacity:1;stroke:#141419;stroke-width:12.00234318;stroke-linejoin:round;stroke-miterlimit:4;stroke-dasharray:none;stroke-opacity:1"
       d="m 93.894924,313.16129 c 5.054344,-0.2012 7.890516,-2.52504 9.444116,-7.11068 l 1.43165,-4.2224 6.60745,-1.83388 c 6.2081,-1.72092 6.82318,-1.67512 10.13126,0.73336 4.92135,3.5828 8.06438,4.04476 11.85778,1.74772 7.38212,-4.4704 18.32211,-17.70316 18.18386,-21.9948 -0.0499,-1.55824 -1.27288,-4.04776 -3.3975,-6.91564 l -3.319,-4.48096 1.6365,-5.84548 c 1.62247,-5.79048 1.67485,-5.85292 5.58914,-6.77984 7.72762,-1.82964 9.1671,-8.32508 4.95171,-22.345 -2.97014,-9.87816 -5.19865,-13.04116 -9.76189,-13.85228 -2.13388,-0.3796 -4.35168,-0.41732 -4.92685,-0.0908 -2.25997,1.30496 -5.31955,-0.0452 -9.33501,-4.1306 -4.17232,-4.24148 -4.19276,-4.28972 -3.37836,-7.66788 1.84547,-7.65444 -2.46685,-11.94308 -15.52884,-15.443 -13.63876,-3.65448 -17.568512,-2.66888 -20.878884,5.23144 l -1.458488,3.4798 -6.285444,1.64956 c -5.624788,1.4758 -6.515752,1.4138 -8.469836,-0.57308 -2.7482,-2.79528 -9.214564,-4.00484 -12.192748,-2.28344 -3.906992,2.25788 -17.505072,15.75372 -18.271836,18.13392 -0.985636,3.0602 0.415408,7.83772 3.060676,10.42808 1.995608,1.9538 1.998452,2.64152 0.0228,8.68812 -2.13176,6.52444 -2.178408,6.58176 -7.195004,8.83916 -6.552933,2.94892 -7.163881,5.06588 -4.653331,16.13568 2.289259,10.09392 5.621347,17.72312 8.408603,19.2538 2.732632,1.50004 5.36526,1.7548 8.416292,0.81352 2.150884,-0.6638 3.131692,-0.1816 6.136496,3.01832 1.966832,2.09412 4.3504,4.30332 5.29628,4.90968 1.327568,0.85128 1.528924,1.89616 0.880512,4.58424 -1.77646,7.36532 1.211696,11.4288 10.739944,14.60076 7.053804,2.34812 12.327088,3.47524 16.258256,3.31892 z m 4.124824,-46.44704 c -8.118656,-1.6e-4 -14.70014,-6.5816 -14.70016,-14.70024 -3.6e-5,-8.11868 6.58146,-14.70024 14.70016,-14.7004 8.118732,0 14.700282,6.58172 14.700272,14.70024 -1e-5,8.1188 -6.58155,14.7004 -14.700272,14.7004 z"
       id="path4500"
       inkscape:connector-curvature="0"
       sodipodi:nodetypes="ccccccccccccccccccccccccccccccccccccscsc"
       inkscape:transform-center-x="-97.863804"
       inkscape:transform-center-y="-95.766951" />
    <path
       inkscape:connector-curvature="0"
       id="path5109"
       d="m 204.42542,166.17265 c -7.21423,-2.82144 -18.30003,-10.75956 -20.69995,-14.82228 -1.08131,-1.83072 -1.9661,-4.68752 -1.9661,-6.34872 0,-3.50628 2.96264,-9.70772 5.59881,-11.71944 2.9573,-2.25668 10.75194,-1.78504 13.54808,0.81956 2.88463,2.68748 3.68833,2.84532 3.68833,0.72428 0,-2.4236 4.5557,-7.62764 7.73585,-8.83672 4.02002,-1.52844 9.77891,0.60636 13.47148,4.99552 2.59682,3.08608 2.94526,4.37892 2.51802,9.34332 -0.60378,7.01556 -5.52826,17.35216 -11.18698,23.48164 -4.73649,5.13044 -5.34103,5.24292 -12.70754,2.36176 z"
       style="fill:#ff3366;fill-opacity:1;stroke:#141419;stroke-width:12.00234318;stroke-miterlimit:4;stroke-dasharray:none;stroke-opacity:1"
       inkscape:transform-center-x="-205.11656"
       inkscape:transform-center-y="-201.01659" />
  </g>
</svg>
