<?xml version="1.0" encoding="UTF-8" standalone="no"?>
<svg xmlns:dc="http://purl.org/dc/elements/1.1/" xmlns:cc="http://creativecommons.org/ns#" xmlns:svg="http://www.w3.org/2000/svg" xmlns="http://www.w3.org/2000/svg" version="1.1" width="256" height="256" xml:space="preserve"><path d="m 122.75712,200.98018 c -2.38603,5.82245 -5.93976,11.27435 -10.66384,15.99843 -19.072296,19.07229 -49.992115,19.07229 -69.067068,0 -19.072287,-19.06962 -19.072287,-49.99211 0,-69.05906 19.074953,-19.07762 49.994772,-19.07762 69.067068,0 4.70275,4.69742 8.24315,10.12265 10.62652,15.90512 4.7854,10.36259 4.37484,27.09417 0.0373,37.15551 m 100.3308,-0.29859 c 0.69315,-0.75447 1.35162,-1.54093 1.96215,-2.36471 l 3.54837,1.4956 2.2261,-3.85764 -2.98588,-2.25807 c 1.3783,-2.86858 2.2874,-5.99841 2.64197,-9.29887 l 3.83365,-0.47721 0,-4.45482 -3.76967,-0.47188 c -0.26393,-3.29246 -1.08771,-6.4303 -2.37537,-9.3122 l 3.15117,-2.38337 -2.22608,-3.85765 -3.59638,1.51427 c -1.82885,-2.61531 -4.08692,-4.9107 -6.67024,-6.7902 l 1.58625,-3.76701 -3.85232,-2.22874 -2.44202,3.22581 c -2.80725,-1.31165 -5.85978,-2.18075 -9.0696,-2.51666 l -0.52786,-4.19623 0,0 0,-0.002 -4.45216,0 -0.5172,4.15623 c -1.27699,0.10664 -2.53,0.30659 -3.75367,0.57852 l 0,-76.091867 -32.55672,6.262343 0,-16.80622 -8.57906,-2.503338 0,20.959788 -7.29674,1.402295 0,-38.640442 -8.13651,1.250336 0,38.955026 -8.54708,1.642232 0,44.414917 -11.58093,-11.58094 -9.98403,4.24154 -1.72754,-10.64518 -23.737724,-6.35832 -6.526273,8.66438 -6.819529,-8.35513 -23.737719,6.36099 -1.316985,10.76782 -10.082666,-3.82832 -17.379401,17.3794 4.24421,9.98402 -10.647849,1.72488 -6.3609839,23.74038 8.6670399,6.52628 -8.3551224,6.81686 6.3583174,23.74039 10.770484,1.31698 -3.828321,10.08267 17.376736,17.3794 9.986691,-4.24421 1.727543,10.64518 23.737719,6.36365 6.526273,-8.66971 6.819529,8.35513 23.737721,-6.35566 1.31965,-10.77048 10.08,3.82566 10.73316,-10.7305 0,22.62335 120.6241,0.12797 0,-25.86516 -28.2192,-26.8409 z" style="fill:#fd8f00;fill-opacity:1;fill-rule:nonzero;stroke:none"/><path d="m 150.49991,33.90865 c 0,6.051732 -4.50014,8.451097 -8.50975,8.451097 -4.00694,0 -11.01308,-3.652367 -11.01308,-9.704099 0,-6.051732 7.00614,-11.27435 11.01308,-11.27435 4.00961,0 8.50975,6.472954 8.50975,12.527352" style="fill:#fd8f00;fill-opacity:1;fill-rule:nonzero;stroke:none"/><path d="m 139.45323,21.160556 c 0,7.41937 -6.69689,13.436445 -13.56974,13.436445 -6.87285,0 -13.56974,-3.772335 -13.56974,-11.191706 0,-7.422036 6.69689,-12.314074 13.56974,-12.314074 6.87285,0 13.56974,2.647299 13.56974,10.069335" style="fill:#fd8f00;fill-opacity:1;fill-rule:nonzero;stroke:none"/><path d="m 167.60605,54.112904 c -3.40176,0.879767 -6.79287,-0.839778 -7.56866,-3.846982 -0.7758,-3.001873 0.97841,-7.600656 4.38284,-8.480423 3.40443,-0.879767 5.71849,2.665961 6.49428,5.6705 0.77579,3.004538 0.096,5.774472 -3.30846,6.656905" style="fill:#fd8f00;fill-opacity:1;fill-rule:nonzero;stroke:none"/><path d="m 169.28667,21.034445 c 0,2.074118 -1.68222,3.75634 -3.75634,3.75634 -2.07678,0 -3.75633,-2.935223 -3.75633,-5.009341 0,-2.074118 1.67955,-3.75634 3.75633,-3.75634 2.07412,0 3.75634,2.935224 3.75634,5.009341" style="fill:#fd8f00;fill-opacity:1;fill-rule:nonzero;stroke:none"/><path d="m 102.12845,9.5049737 c 0,1.2210103 -2.444695,2.2100823 -3.913645,2.2100823 -1.46894,0 -2.660625,-0.989072 -2.660625,-2.2100823 0,-1.2210103 1.191685,-3.4630837 2.660625,-3.4630837 1.46895,0 3.913645,2.2420734 3.913645,3.4630837" style="fill:#fd8f00;fill-opacity:1;fill-rule:nonzero;stroke:none"/><path d="m 117.78324,182.44614 c 0,-6.71823 -1.56759,-13.04722 -4.47082,-18.61908 -6.73155,-12.92724 -20.165336,-21.76224 -35.750546,-21.76224 -6.87818,0 -13.345802,1.62357 -19.01097,4.64944 -12.927246,6.73421 -21.764908,20.144 -21.764908,35.73188 0,15.59054 8.837662,29.00032 21.764908,35.73454 5.665168,3.02853 12.13279,4.64944 19.01097,4.64944 15.619867,0 29.077646,-8.87497 35.793206,-21.8502 2.87657,-5.55322 4.42816,-11.84753 4.42816,-18.53376" style="fill:#fd8f00;fill-opacity:1;fill-rule:nonzero;stroke:none"/></svg>