<?xml version="1.0" encoding="UTF-8" standalone="no"?>
<!-- Generator: Adobe Illustrator 14.0.0, SVG Export Plug-In . SVG Version: 6.00 Build 43363)  -->

<svg
   xmlns:dc="http://purl.org/dc/elements/1.1/"
   xmlns:cc="http://creativecommons.org/ns#"
   xmlns:rdf="http://www.w3.org/1999/02/22-rdf-syntax-ns#"
   xmlns:svg="http://www.w3.org/2000/svg"
   xmlns="http://www.w3.org/2000/svg"
   xmlns:sodipodi="http://sodipodi.sourceforge.net/DTD/sodipodi-0.dtd"
   xmlns:inkscape="http://www.inkscape.org/namespaces/inkscape"
   version="1.1"
   id="Layer_1"
   x="0px"
   y="0px"
   width="400px"
   height="100px"
   viewBox="0 0 400 100"
   enable-background="new 0 0 400 100"
   xml:space="preserve"
   inkscape:version="0.48.2 r9819"
   sodipodi:docname="HaxePunk.svg"><metadata
   id="metadata49"><rdf:RDF><cc:Work
       rdf:about=""><dc:format>image/svg+xml</dc:format><dc:type
         rdf:resource="http://purl.org/dc/dcmitype/StillImage" /></cc:Work></rdf:RDF></metadata><defs
   id="defs47" /><sodipodi:namedview
   pagecolor="#ffffff"
   bordercolor="#666666"
   borderopacity="1"
   objecttolerance="10"
   gridtolerance="10"
   guidetolerance="10"
   inkscape:pageopacity="0"
   inkscape:pageshadow="2"
   inkscape:window-width="1248"
   inkscape:window-height="805"
   id="namedview45"
   showgrid="false"
   inkscape:zoom="2.4890159"
   inkscape:cx="189.44395"
   inkscape:cy="56.573035"
   inkscape:window-x="0"
   inkscape:window-y="0"
   inkscape:window-maximized="0"
   inkscape:current-layer="Layer_1" />
<g
   id="g3"
   transform="translate(6,0)">
	<path
   d="m 161.125,19.03125 -6,2.9375 -9.71875,46.59375 -23.9375,0 0.125,-0.28125 c 1.1,-2.429 2.35175,-5.7425 3.71875,-9.9375 1.367,-4.194 2.641,-8.50225 3.875,-12.90625 1.232,-4.403 2.33125,-8.6745 3.28125,-12.8125 0.949,-4.137 1.62,-7.712 2,-10.75 l -6.4375,3.1875 -0.15625,1.0625 -2,10.15625 c -0.456,2.164 -1.09025,4.86 -1.90625,8.125 -0.817,3.265 -1.73175,6.6565 -2.71875,10.1875 -0.988,3.531 -1.72575,6.05125 -2.21875,7.53125 -2.885,8.959 -6.046,16.049 -9.5,21.25 -2.469,3.721 -5.61125,6.6485 -9.40625,8.8125 -1.581667,0.901667 -3.196111,1.59923 -4.84375,2.125 l 0,1.875 c 0.455046,-0.145586 0.89638,-0.30921 1.34375,-0.46875 2.449,-0.873 4.63225,-1.8845 6.53125,-3.0625 3.264,-2.011 6.43625,-4.983 9.53125,-8.875 3.094,-3.891 5.711,-8.30725 7.875,-13.28125 l 0.1875,-0.28125 c 2.05,0.987 4.08725,2.39675 6.15625,4.21875 2.069,1.822 4.09425,3.90925 6.03125,6.28125 1.936,2.373 3.60725,4.8065 5.03125,7.3125 1.424,2.506 2.5635,5.0685 3.4375,7.6875 l 3.53125,0 16.1875,-76.6875 z M 125.46875,70.5 l 19.46875,0 -3.59375,17.40625 c -1.785,-2.847 -4.20625,-5.92225 -7.28125,-9.28125 -3.076,-3.36 -5.93675,-6.074 -8.59375,-8.125 z"
   id="path5"
   style="fill:#fd8f00;fill-opacity:1"
   inkscape:connector-curvature="0" />
	<path
   d="M 185.663,62.068 180.31,82.91 c -0.569,2.278 -0.854,4.062 -0.854,5.353 0,1.14 0.247,2.127 0.74,2.961 0.493,0.836 1.101,1.253 1.822,1.253 1.101,0 2.923,-1.347 5.467,-4.043 l 0.797,0.798 -0.626,0.74 c -2.013,2.315 -3.559,3.938 -4.641,4.868 -1.082,0.93 -2.021,1.396 -2.819,1.396 -1.215,0 -2.269,-0.636 -3.16,-1.908 -0.893,-1.271 -1.338,-2.742 -1.338,-4.413 0,-1.214 0.456,-3.966 1.367,-8.257 l 0.456,-2.164 c -1.405,3.266 -3.284,6.397 -5.638,9.396 -3.949,5.011 -7.726,7.517 -11.332,7.517 -2.164,0 -3.873,-0.778 -5.125,-2.335 -1.253,-1.557 -1.879,-3.645 -1.879,-6.264 0,-3.568 1.016,-7.308 3.046,-11.218 2.031,-3.91 4.556,-7.127 7.574,-9.652 3.018,-2.524 5.951,-3.787 8.798,-3.787 2.999,0 5.239,1.102 6.719,3.303 l 0.626,-2.164 5.353,-2.222 z m -6.549,7.289 c -0.456,-1.442 -1.224,-2.571 -2.306,-3.388 -1.082,-0.817 -2.326,-1.225 -3.73,-1.225 -1.671,0 -3.436,0.769 -5.295,2.307 -1.861,1.537 -3.569,3.673 -5.125,6.405 -1.215,2.164 -2.231,4.556 -3.047,7.176 -0.816,2.619 -1.224,4.783 -1.224,6.491 0,1.937 0.37,3.455 1.11,4.556 0.74,1.102 1.794,1.651 3.161,1.651 1.746,0 3.568,-0.816 5.466,-2.448 1.898,-1.632 3.777,-3.967 5.638,-7.005 1.139,-1.745 2.03,-3.492 2.676,-5.238 0.645,-1.746 1.367,-4.176 2.164,-7.289 l 0.512,-1.993 z"
   id="path7"
   inkscape:connector-curvature="0"
   style="fill:#fd8f00" />
	<path
   d="m 205.024,76.59 1.025,-1.196 1.025,-1.195 c 1.025,-1.177 2.542,-2.98 4.555,-5.41 l 3.815,-4.727 0.569,-0.74 H 220 l -0.57,0.627 c -2.999,3.151 -5.486,5.827 -7.459,8.028 -3.038,3.303 -4.974,5.43 -5.808,6.378 l -0.171,0.228 8.086,17.197 h -5.182 l -6.207,-13.438 -0.171,0.228 c -0.569,0.607 -1.651,1.899 -3.246,3.872 l -3.474,4.214 c -2.164,2.696 -3.587,4.404 -4.271,5.125 h -3.986 l 0.911,-0.911 c 3.227,-3.265 6.928,-7.269 11.104,-12.015 l 2.221,-2.506 -7.46,-16.172 4.043,-1.651 6.664,14.064 z"
   id="path9"
   inkscape:connector-curvature="0"
   style="fill:#fd8f00" />
	<path
   d="m 240.218,86.896 1.025,0.854 c -2.354,3.113 -4.651,5.363 -6.891,6.748 -2.24,1.386 -4.65,2.079 -7.232,2.079 -3.075,0 -5.543,-1.025 -7.402,-3.075 -1.86,-2.05 -2.791,-4.764 -2.791,-8.144 0,-3.416 0.902,-6.88 2.705,-10.392 1.803,-3.511 4.062,-6.415 6.776,-8.713 2.713,-2.296 5.4,-3.445 8.058,-3.445 1.556,0 2.837,0.456 3.844,1.367 1.005,0.911 1.509,2.088 1.509,3.53 0,2.924 -1.594,5.847 -4.783,8.77 -3.189,2.924 -7.536,5.409 -13.04,7.46 -0.039,0.304 -0.057,0.646 -0.057,1.024 0,2.62 0.721,4.755 2.164,6.406 1.442,1.651 3.303,2.478 5.58,2.478 1.784,0 3.511,-0.56 5.182,-1.68 1.67,-1.119 3.454,-2.875 5.353,-5.267 z m -18.222,-4.328 c 4.1,-1.822 7.25,-3.853 9.453,-6.093 1.48,-1.518 2.676,-3.15 3.587,-4.897 0.911,-1.745 1.367,-3.321 1.367,-4.727 0,-1.783 -0.817,-2.676 -2.449,-2.676 -2.468,0 -4.964,1.945 -7.488,5.837 -2.525,3.892 -4.014,8.078 -4.47,12.556 z"
   id="path11"
   inkscape:connector-curvature="0"
   style="fill:#fd8f00" />
	<path
   d="m 251.485,88.179 c 0,2.646 0,3.331 4.017,3.821 v 3.723 H 242.569 V 92 c 4.017,-0.49 4.017,-0.98 4.017,-3.821 v -54.28 c 0,-2.841 0,-3.429 -4.017,-3.821 v -3.723 h 17.832 c 8.524,0 11.071,3.429 11.071,8.034 0,5.193 -3.429,7.936 -11.267,7.936 h -8.72 v 45.854 z m 8.916,-50.165 c 3.919,0 5.878,-0.881 5.878,-3.723 0,-2.548 -2.645,-3.625 -5.878,-3.625 h -8.916 v 7.348 h 8.916 z"
   id="path13"
   inkscape:connector-curvature="0"
   style="fill:#fd8f00" />
	<path
   d="m 305.37,78.479 c 0,11.562 -2.547,18.42 -14.108,18.42 -11.071,0 -13.521,-6.858 -13.521,-18.42 v -44.58 c 0,-2.841 0,-3.429 -3.723,-3.821 v -3.723 h 12.443 v 3.723 c -3.821,0.392 -3.821,0.98 -3.821,3.821 v 44.972 c 0,8.817 1.764,13.324 8.818,13.324 7.25,0 9.014,-4.507 9.014,-13.324 V 33.899 c 0,-2.841 0,-3.429 -3.821,-3.821 v -3.723 h 12.443 v 3.723 c -3.723,0.392 -3.723,0.98 -3.723,3.821 v 44.58 z"
   id="path15"
   inkscape:connector-curvature="0"
   style="fill:#fd8f00" />
	<path
   d="m 312.618,92 c 4.017,-0.49 4.017,-0.98 4.017,-3.821 v -54.28 c 0,-2.841 0,-3.429 -4.017,-3.821 v -3.723 h 8.916 v 0.98 c 0,1.666 0.196,1.861 1.666,2.646 l 15.97,8.916 V 33.9 c 0,-2.841 0,-3.429 -4.017,-3.821 v -3.723 h 12.933 v 3.723 c -4.017,0.392 -4.017,0.98 -4.017,3.821 v 54.279 c 0,2.646 0,3.331 4.017,3.821 v 3.723 H 335.153 V 92 c 4.017,-0.49 4.017,-0.98 4.017,-3.821 V 43.893 l -17.636,-9.994 v 54.279 c 0,2.646 0,3.331 4.017,3.821 v 3.723 H 312.618 V 92 z"
   id="path17"
   inkscape:connector-curvature="0"
   style="fill:#fd8f00" />
	<path
   d="M 352.198,95.723 V 92 c 3.723,-0.49 3.723,-0.98 3.723,-3.821 v -54.28 c 0,-2.841 0,-3.429 -3.723,-3.821 v -3.723 h 12.051 v 3.723 c -3.429,0.392 -3.429,0.98 -3.429,3.821 v 7.348 l 11.855,-9.112 c 0.49,-0.392 1.176,-0.882 1.176,-1.273 0,-0.784 -1.47,-0.686 -2.253,-0.784 v -3.723 h 11.071 v 3.723 c -1.666,0.588 -2.841,1.47 -4.899,3.038 l -6.369,4.898 c 0.49,6.957 2.352,27.826 5.781,41.542 2.155,8.72 4.017,11.855 8.23,12.443 v 3.723 h -7.446 c -2.058,-3.723 -4.311,-9.504 -5.78,-16.264 -2.352,-11.17 -4.017,-25.475 -4.997,-38.016 l -6.369,4.801 v 41.934 c 0,2.646 0,3.331 3.429,3.821 v 3.723 h -12.051 z"
   id="path19"
   inkscape:connector-curvature="0"
   style="fill:#fd8f00" />
</g>
<g
   id="g21"
   transform="translate(6,0)">
	<path
   d="m 30.162,84.703 c -5.86,0 -10.939,-3.329 -13.459,-8.196"
   id="path23"
   inkscape:connector-curvature="0"
   style="fill:none" />
	<path
   d="m 47.102,62.57 c -0.895,-2.17 -2.223,-4.204 -3.986,-5.967 -7.154,-7.155 -18.752,-7.155 -25.907,0 -7.154,7.152 -7.154,18.751 0,25.904 7.155,7.154 18.753,7.154 25.907,0 1.772,-1.771 3.105,-3.817 4,-6.001"
   id="path25"
   inkscape:connector-curvature="0"
   style="fill:none" />
	<path
   d="m 16.721,62.57 c 2.525,-4.849 7.594,-8.163 13.441,-8.163"
   id="path27"
   inkscape:connector-curvature="0"
   style="fill:none" />
	<path
   d="m 84.749,76.395 c 0.26,-0.282 0.507,-0.578 0.736,-0.887 l 1.331,0.561 0.835,-1.446 -1.12,-0.848 c 0.517,-1.075 0.858,-2.25 0.991,-3.487 l 1.438,-0.18 V 68.437 L 87.546,68.26 c -0.1,-1.235 -0.408,-2.412 -0.892,-3.493 l 1.183,-0.894 -0.835,-1.447 -1.35,0.568 C 84.966,62.013 84.119,61.151 83.15,60.447 l 0.596,-1.413 -1.446,-0.836 -0.916,1.21 C 80.331,58.916 79.186,58.59 77.982,58.464 L 77.785,56.89 h 0 v -10e-4 h -1.669 l -0.195,1.56 c -0.479,0.04 -0.949,0.114 -1.407,0.217 V 30.123 l -12.212,2.349 v -6.304 l -3.218,-0.939 v 7.862 l -2.737,0.526 V 19.123 l -3.053,0.47 v 14.611 l -3.206,0.617 V 51.48 l -4.344,-4.344 -3.746,1.591 -0.648,-3.993 -8.904,-2.385 -2.448,3.25 -2.558,-3.135 -8.904,2.386 -0.494,4.039 -3.782,-1.436 -6.519,6.519 1.592,3.745 -3.993,0.648 -2.385,8.905 3.251,2.448 -3.135,2.557 2.386,8.905 4.04,0.494 -1.436,3.782 6.518,6.519 3.746,-1.592 0.648,3.993 8.904,2.387 2.448,-3.252 2.558,3.134 8.905,-2.384 0.494,-4.04 3.782,1.436 4.026,-4.025 v 8.486 l 45.246,0.048 V 86.464 L 84.749,76.395 z m -37.634,0.112 c -0.895,2.184 -2.228,4.229 -4,6.001 -7.154,7.154 -18.752,7.154 -25.907,0 -7.154,-7.153 -7.154,-18.752 0,-25.904 7.155,-7.155 18.753,-7.155 25.907,0 1.764,1.763 3.092,3.797 3.986,5.967 1.795,3.886 1.642,10.161 0.014,13.936 z"
   id="path29"
   inkscape:connector-curvature="0"
   style="fill:#fd8f00" />
	<path
   d="m 57.521,13.838 c 0,2.27 -1.688,3.17 -3.192,3.17 -1.503,0 -4.131,-1.371 -4.131,-3.641 0,-2.27 2.628,-4.229 4.131,-4.229 1.504,0.002 3.192,2.43 3.192,4.7 z"
   id="path31"
   inkscape:connector-curvature="0"
   style="fill:#fd8f00" />
	<path
   d="m 53.378,9.057 c 0,2.783 -2.512,5.04 -5.09,5.04 -2.579,0 -5.09,-1.415 -5.09,-4.198 0,-2.784 2.511,-4.619 5.09,-4.619 2.578,0 5.09,0.993 5.09,3.777 z"
   id="path33"
   inkscape:connector-curvature="0"
   style="fill:#fd8f00" />
	<path
   d="m 63.938,21.417 c -1.276,0.33 -2.548,-0.315 -2.839,-1.443 -0.292,-1.126 0.367,-2.851 1.644,-3.181 1.277,-0.33 2.145,1 2.436,2.127 0.291,1.127 0.036,2.166 -1.241,2.497 z"
   id="path35"
   inkscape:connector-curvature="0"
   style="fill:#fd8f00" />
	<path
   d="m 64.568,9.009 c 0,0.778 -0.631,1.409 -1.409,1.409 -0.778,0 -1.409,-1.101 -1.409,-1.878 0,-0.778 0.631,-1.41 1.409,-1.41 0.778,0 1.409,1.101 1.409,1.879 z"
   id="path37"
   inkscape:connector-curvature="0"
   style="fill:#fd8f00" />
	<path
   d="m 39.377,4.685 c 0,0.458 -0.917,0.829 -1.468,0.829 -0.551,0 -0.998,-0.371 -0.998,-0.829 0,-0.458 0.447,-1.299 0.998,-1.299 0.552,0 1.468,0.841 1.468,1.299 z"
   id="path39"
   inkscape:connector-curvature="0"
   style="fill:#fd8f00" />
	<g
   id="g41">
		<path
   d="m 45.25,69.555 c 0,-2.52 -0.588,-4.894 -1.677,-6.984 l 0,0 c -2.525,-4.849 -7.564,-8.163 -13.41,-8.163 -2.579,0 -5.005,0.609 -7.13,1.744 l 0,0 c -4.85,2.526 -8.164,7.557 -8.164,13.403 0,5.848 3.314,10.878 8.164,13.404 l 0,0 c 2.125,1.136 4.551,1.744 7.13,1.744 5.859,0 10.908,-3.329 13.427,-8.196 l 0,0 c 1.077,-2.083 1.66,-4.445 1.66,-6.952 z"
   id="path43"
   inkscape:connector-curvature="0"
   style="fill:#fd8f00" />
	</g>
</g>
</svg>