<?xml version="1.0" encoding="UTF-8" standalone="no"?>
<!-- Created with Inkscape (http://www.inkscape.org/) -->

<svg
   xmlns:dc="http://purl.org/dc/elements/1.1/"
   xmlns:cc="http://creativecommons.org/ns#"
   xmlns:rdf="http://www.w3.org/1999/02/22-rdf-syntax-ns#"
   xmlns:svg="http://www.w3.org/2000/svg"
   xmlns="http://www.w3.org/2000/svg"
   xmlns:xlink="http://www.w3.org/1999/xlink"
   xmlns:sodipodi="http://sodipodi.sourceforge.net/DTD/sodipodi-0.dtd"
   xmlns:inkscape="http://www.inkscape.org/namespaces/inkscape"
   width="1024"
   height="256"
   viewBox="0 0 270.93333 67.733335"
   version="1.1"
   id="svg8423"
   inkscape:version="0.92.1 unknown"
   sodipodi:docname="HaxePunk.svg"
   inkscape:export-filename="/home/ben/Dev/haxepunk/HaxePunk.png"
   inkscape:export-xdpi="96"
   inkscape:export-ydpi="96">
  <defs
     id="defs8417">
    <linearGradient
       inkscape:collect="always"
       id="linearGradient4563">
      <stop
         style="stop-color:#a84b38;stop-opacity:1"
         offset="0"
         id="stop4559" />
      <stop
         style="stop-color:#ff3366;stop-opacity:1"
         offset="1"
         id="stop4561" />
    </linearGradient>
    <linearGradient
       inkscape:collect="always"
       id="linearGradient4555">
      <stop
         style="stop-color:#ea8220;stop-opacity:1"
         offset="0"
         id="stop4551" />
      <stop
         style="stop-color:#fbc707;stop-opacity:1"
         offset="1"
         id="stop4553" />
    </linearGradient>
    <linearGradient
       inkscape:collect="always"
       xlink:href="#linearGradient4591"
       id="linearGradient4593"
       x1="29.633333"
       y1="263.13333"
       x2="9.1562223"
       y2="284.73471"
       gradientUnits="userSpaceOnUse"
       gradientTransform="matrix(0.97982152,0,0,0.97982152,3.7285359,8.4857731)" />
    <linearGradient
       inkscape:collect="always"
       id="linearGradient4591">
      <stop
         style="stop-color:#fbc707;stop-opacity:1;"
         offset="0"
         id="stop4587" />
      <stop
         style="stop-color:#ea8220;stop-opacity:1"
         offset="1"
         id="stop4589" />
    </linearGradient>
    <linearGradient
       inkscape:collect="always"
       xlink:href="#linearGradient4555"
       id="linearGradient4627"
       gradientUnits="userSpaceOnUse"
       x1="400"
       y1="192"
       x2="400"
       y2="96"
       gradientTransform="matrix(0.2959472,0,0,0.26458333,-16.395561,228.73749)" />
    <linearGradient
       inkscape:collect="always"
       xlink:href="#linearGradient4563"
       id="linearGradient4629"
       gradientUnits="userSpaceOnUse"
       x1="688.36792"
       y1="218"
       x2="688.36792"
       y2="154"
       gradientTransform="matrix(0.2959472,0,0,0.26458333,-17.453895,228.73749)" />
    <linearGradient
       inkscape:collect="always"
       xlink:href="#linearGradient4555"
       id="linearGradient4748"
       gradientUnits="userSpaceOnUse"
       gradientTransform="matrix(0.2959472,0,0,0.26458333,-16.395561,228.73749)"
       x1="400"
       y1="192"
       x2="400"
       y2="96" />
    <linearGradient
       inkscape:collect="always"
       xlink:href="#linearGradient4563"
       id="linearGradient4750"
       gradientUnits="userSpaceOnUse"
       gradientTransform="matrix(0.2959472,0,0,0.26458333,-17.453895,228.73749)"
       x1="688"
       y1="192"
       x2="688"
       y2="96" />
  </defs>
  <sodipodi:namedview
     id="base"
     pagecolor="#ffffff"
     bordercolor="#666666"
     borderopacity="1.0"
     inkscape:pageopacity="0.0"
     inkscape:pageshadow="2"
     inkscape:zoom="1"
     inkscape:cx="556.71594"
     inkscape:cy="146.28959"
     inkscape:document-units="px"
     inkscape:current-layer="layer1"
     showgrid="true"
     units="px"
     inkscape:window-width="1859"
     inkscape:window-height="1050"
     inkscape:window-x="61"
     inkscape:window-y="30"
     inkscape:window-maximized="1"
     inkscape:snap-center="true"
     inkscape:snap-global="true">
    <inkscape:grid
       type="xygrid"
       id="grid8968" />
  </sodipodi:namedview>
  <metadata
     id="metadata8420">
    <rdf:RDF>
      <cc:Work
         rdf:about="">
        <dc:format>image/svg+xml</dc:format>
        <dc:type
           rdf:resource="http://purl.org/dc/dcmitype/StillImage" />
        <dc:title />
      </cc:Work>
    </rdf:RDF>
  </metadata>
  <g
     inkscape:label="Layer 1"
     inkscape:groupmode="layer"
     id="layer1"
     transform="translate(0,-229.26665)">
    <path
       style="color:#000000;font-style:normal;font-variant:normal;font-weight:normal;font-stretch:normal;font-size:medium;line-height:125%;font-family:'SP Marker Font';-inkscape-font-specification:'SP Marker Font';font-variant-ligatures:normal;font-variant-position:normal;font-variant-caps:normal;font-variant-numeric:normal;font-variant-alternates:normal;font-feature-settings:normal;text-indent:0;text-align:start;text-decoration:none;text-decoration-line:none;text-decoration-style:solid;text-decoration-color:#000000;letter-spacing:3.61001945px;word-spacing:0px;text-transform:none;writing-mode:lr-tb;direction:ltr;text-orientation:mixed;dominant-baseline:auto;baseline-shift:baseline;text-anchor:start;white-space:normal;shape-padding:0;clip-rule:nonzero;display:inline;overflow:visible;visibility:visible;opacity:1;isolation:auto;mix-blend-mode:normal;color-interpolation:sRGB;color-interpolation-filters:linearRGB;solid-color:#000000;solid-opacity:1;vector-effect:none;fill:none;fill-opacity:1;fill-rule:nonzero;stroke:#f2f2f2;stroke-width:6.3499999;stroke-linecap:round;stroke-linejoin:round;stroke-miterlimit:4;stroke-dasharray:none;stroke-dashoffset:0;stroke-opacity:1;color-rendering:auto;image-rendering:auto;shape-rendering:auto;text-rendering:auto;enable-background:accumulate"
       d="m 213.73889,255.3245 c -8.10498,-2.20507 -4.76558,12.46376 -5.39758,11.38117 -0.0888,-5.46726 -7.49406,-7.97601 -11.52517,-5.14078 -2.31751,-0.45704 -8.86802,-1.23044 -9.08483,3.34409 -0.15279,2.65101 0.0231,11.15992 -0.0394,9.67504 -1.02363,-4.10187 1.58435,-9.87558 -2.11275,-12.94343 -2.77851,-0.66785 -7.06164,-1.15682 -8.66214,1.80475 -1.80685,-5.03986 -8.90352,0.24451 -9.78054,-1.8353 -3.96972,-6.07099 -12.33383,-6.0865 -18.69965,-4.86538 -4.03644,2.77121 -1.64747,8.87293 -2.36178,12.96352 0.88022,5.14076 -1.44098,11.85428 2.31381,15.92293 3.03486,2.0504 9.1047,1.16328 8.12598,-3.5063 -0.43113,-4.51242 -0.64394,-8.04714 4.58787,-8.23319 4.04789,-2.11106 5.73961,-5.02151 4.72364,0.98477 -0.29622,5.57638 4.54219,10.40907 10.19023,9.58263 3.87744,-0.2957 11.57429,0.0554 12.22503,-2.25104 1.76948,3.11484 8.04436,3.91205 9.75843,0.30835 0.765,0.6752 10.94687,4.91368 10.22783,-2.32567 0.19323,-2.40888 0.28578,-8.65803 0.31756,-2.68466 -1.76631,5.56678 3.23753,9.6867 8.43944,7.01776 3.21865,-1.17763 0.61013,-7.63695 4.25448,-2.95201 2.92962,4.22227 9.25052,6.42096 11.86728,0.79343 2.97924,-6.35135 -11.85233,-8.14586 -5.43946,-13.23226 5.52474,-3.58369 1.01209,-9.77415 -4.56357,-8.44918 -2.9877,0.72899 -5.24642,6.92345 -4.70141,0.71601 0.22764,-3.16035 -0.71634,-6.66012 -4.66329,-6.07525 z m -137.943518,1.10174 c -5.714108,-1.34488 -7.218661,5.04118 -6.378933,9.40614 -6.736043,2.25606 -5.053202,-2.86327 -5.902982,-7.27266 -4.590301,-4.72701 -11.940811,0.62892 -9.550733,6.73135 0.0804,6.47531 -0.829346,13.30638 0.71145,19.58614 5.544303,4.54181 11.96314,-1.57261 9.349647,-7.85544 -0.634061,-2.43179 7.506075,-2.61578 5.406709,1.29674 -0.321002,3.7352 0.312446,9.97532 5.763366,8.43761 6.495123,-0.0353 3.986873,-7.28423 4.304942,-11.30254 -0.208947,-5.63216 0.381928,-11.35291 -0.240621,-16.93966 -0.573597,-1.48064 -1.91628,-2.22378 -3.462845,-2.08768 z m 43.007198,2.89491 c -4.04071,0.28001 -5.41547,7.59729 -8.30478,1.62027 -4.02172,-1.99785 -10.813557,2.71609 -7.0401,6.9506 4.40484,3.58845 2.03003,6.91529 -1.09185,10.47325 -3.115585,-5.0456 2.82436,-13.97785 -3.617324,-16.60144 -5.487597,-0.005 -12.46592,-1.78117 -16.686406,3.34188 -4.076986,5.58571 -3.041945,15.34451 2.84138,19.37119 5.334289,1.72671 10.070732,-0.39663 15.37009,0.0796 3.08164,-4.37799 5.75061,3.86506 9.45529,0.48455 2.11098,-4.07311 3.75527,-4.37453 6.5002,-0.69382 3.66824,2.12804 8.08957,-3.38657 8.96963,-2.97168 5.25273,6.43168 17.20631,3.38994 19.409,-4.32921 0.85534,-5.12417 -7.17142,-3.0644 -2.42284,-7.71362 3.35728,-7.89503 -7.90827,-12.29612 -13.17334,-7.39717 -5.0192,3.19461 -7.18757,12.33514 -5.54537,15.95797 -7.65037,-4.81186 0.78679,-8.54249 1.33292,-14.17146 -0.91449,-2.25271 -3.72605,-3.88178 -5.9965,-4.4009 z m 15.82074,3.30058 c 0.72181,0.28415 0.0509,0.15736 0,0 z m 21.75991,1.9606 c 3.80936,0.24938 -1.54803,4.07612 0,0 z m -49.60679,1.65106 c 0.16207,0.16337 0.48271,0.60138 0,0 z m -16.56695,3.01326 c 0.844527,2.39741 -0.943423,8.21006 -0.502317,2.32679 0.112629,-0.77792 0.126648,-1.61366 0.502317,-2.32679 z m 103.82054,2.27169 c 0.0367,-0.007 -0.0279,0.0801 0,0 z m -98.830147,0.7245 c 0.04961,0.18751 -0.680003,0.17253 0,0 z m 133.896217,7.65794 0.19534,0.15657 z m -41.22435,0.13642 c 0.007,0.008 0.005,0.0402 0,0 z m -86.15857,0.68781 c 0.15621,0.65413 0.10975,0.6814 0,0 z m 51.16845,0.79117 0.0346,0.31264 z m 28.9879,0.40618 c 0.14355,0.3399 -0.0755,0.0725 0,0 z m -84.14422,0.80253 c 0.730413,0.79914 -0.02094,0.29493 0,0 z"
       id="path4722"
       inkscape:connector-curvature="0" />
    <g
       transform="translate(8.2519671e-8,1.0539948e-6)"
       id="g5143">
      <path
         sodipodi:nodetypes="cccccccscscccccccccccccccccccccscccccccccsccccscccccccccccscscccccccccccccccccccccccccccccccccccccccccscccscccccsccccccccccccccccccccccccccsccccccccccccccccccccccsccccccccccccccccccccccccccccccccscccssc"
         inkscape:connector-curvature="0"
         id="path4510-3"
         transform="matrix(0.26458334,0,0,0.26458334,0,229.26665)"
         d="m 215.7793,27.626953 c -1.85138,-0.03024 -3.74156,0.279987 -5.625,0.996094 -3.37299,1.282431 -5.45252,3.347506 -7.43946,5.617187 -0.45989,0.525355 -0.80762,1.134758 -1.21875,1.691407 -2.28262,-1.06715 -4.61096,-1.665426 -6.97656,-1.808594 -3.57533,-0.216189 -7.17628,-0.165778 -10.83594,2.626953 -2.81974,2.151836 -4.23398,4.697339 -5.5664,7.486328 -1.33242,2.789027 -2.39063,5.563126 -2.39063,9.00586 0,3.791319 1.05439,6.446563 2.79688,9.396484 2.387,4.040882 5.92723,6.627634 10.21679,9.699219 4.28956,3.071584 9.04393,5.930253 13.45704,7.65625 3.75903,1.47016 6.53204,2.893177 10.62304,2.132812 4.091,-0.760327 6.24236,-3.373471 8.68164,-6.015625 6.76128,-7.323817 11.95647,-17.743729 12.75586,-27.033203 0.22934,-2.664869 0.36977,-4.922919 -0.31054,-7.447266 -0.68032,-2.524346 -2.11692,-4.510173 -3.59571,-6.267578 -3.78986,-4.504025 -9.01813,-7.651024 -14.57226,-7.736328 z m -1.01758,12.179688 c 1.11871,0.03895 4.36699,0.861624 6.40625,3.285156 1.11753,1.328088 1.1533,1.526021 1.18945,1.660156 0.0363,0.134173 0.13923,1.002224 -0.0586,3.300781 -0.40779,4.738772 -5.06518,14.991016 -9.61914,19.923828 -1.14517,1.240424 -1.84732,1.861731 -2.16992,2.158204 -0.50263,-0.149668 -1.71757,-0.446565 -3.94141,-1.316407 -2.79972,-1.094967 -7.19038,-3.620845 -10.8457,-6.238281 -3.65533,-2.617436 -6.85278,-6.025785 -6.86524,-6.046875 -0.39142,-0.662665 -1.03905,-3.357565 -1.125,-3.337891 0.0147,-0.132207 0.42182,-2.133011 1.21485,-3.792968 0.73063,-1.529363 1.80726,-2.795367 1.89453,-2.949219 0.15876,0.05974 1.54518,-0.442062 2.94726,-0.357422 1.7593,0.106583 3.4948,1.104826 2.99024,0.634766 0.80124,0.746456 1.50114,1.375804 2.28906,1.964843 0.78792,0.58904 1.49988,1.291496 3.56445,1.697266 1.03229,0.202961 2.62318,0.209743 4.11914,-0.509766 1.49596,-0.719584 2.51968,-2.011725 3.00391,-2.982421 0.73567,-1.474729 0.81358,-2.392688 0.80859,-3.148438 0.21102,-0.369746 0.64479,-0.996704 1.17774,-1.605469 1.08535,-1.239798 2.87315,-2.384096 2.67969,-2.310546 0.0631,-0.024 0.18002,-0.03486 0.33984,-0.0293 z m -4.26367,4.099609 c -0.0341,0.167772 -0.0474,0.14002 0,0 z m -52.08203,14.695312 c -3.55577,0 -7.10741,1.333948 -9.78125,4.007813 l -11.08789,11.087891 c -4.84648,4.846362 -5.28539,12.581274 -1.34766,17.970703 l -8.41797,8.417971 c -3.29144,-2.021558 -7.29344,-3.417069 -12.16602,-4.722659 -3.54372,-0.94953 -6.58616,-1.708057 -9.38281,-2.068359 -2.79664,-0.360189 -5.3525,-0.322773 -7.943358,0.326172 -5.181709,1.298494 -8.689173,5.803335 -10.636718,10.451176 l -0.316406,0.74609 -3.417969,0.90039 c -2.302897,0.6045 -3.016759,0.65094 -3.123047,0.70117 -2.625082,-2.46618 -5.633821,-3.62846 -8.72461,-4.20703 -3.260197,-0.61032 -6.64619,-0.85085 -10.291015,1.25586 -1.91308,1.10559 -3.404819,2.4241 -5.359375,4.14844 -1.954553,1.72437 -4.107716,3.76001 -6.171875,5.80859 -2.064159,2.04862 -4.02618,4.09256 -5.601563,5.87695 -0.787691,0.8922 -1.479706,1.71006 -2.082031,2.50977 -0.602324,0.79971 -1.122168,1.17135 -1.757812,3.14453 -1.026426,3.18675 -0.695473,6.14176 0.11914,8.91797 0.725552,2.47268 2.117865,4.74399 3.962891,6.79688 -0.06837,0.0945 -0.181069,0.88066 -0.996094,3.375 -0.842471,2.57841 -1.373217,3.76252 -1.470703,4.03906 -0.137268,0.0577 -0.711732,0.39108 -2.478516,1.1875 -1.851091,0.83301 -3.575247,1.68994 -5.234375,3.07812 -1.659128,1.38819 -3.144286,3.50081 -3.792968,5.75 -1.297365,4.49832 -0.316029,8.38293 0.980468,14.09961 1.21117,5.34032 2.691853,10.06904 4.371094,13.91406 1.67924,3.84499 2.810191,6.9673 7.00586,9.27149 3.536949,1.94245 7.843082,2.29876 11.802734,1.41016 0.06421,0.0873 0.212366,0.15857 1.255859,1.26953 1.090462,1.16099 2.257113,2.31578 3.328125,3.30859 0.468363,0.43412 0.948514,0.75362 1.359375,1.11328 -1.00261,4.55875 -0.649878,9.56756 2.16211,13.39063 2.901377,3.94458 7.22765,6.09247 12.541015,7.86132 7.356809,2.44906 13.101404,3.83518 18.388672,3.625 1.129134,-0.0477 2.221847,-0.41328 3.152344,-1.05468 2.203782,-0.4746 4.515538,-0.72305 6.304688,-2.09766 2.68373,-2.06188 4.39973,-4.9797 5.43359,-8.03125 l 0.41211,-1.2168 3.54297,-0.98242 c 2.26204,-0.62706 3.5753,-0.85266 3.99609,-0.93554 0.0962,0.0797 0.31214,0.23407 1.00196,0.73632 2.85233,2.07644 5.65586,3.67061 9.00586,4.16407 3.34999,0.49345 6.80948,-0.51384 9.48633,-2.13477 4.81073,-2.9133 9.47112,-7.58527 13.42773,-12.37109 1.97831,-2.3929 3.72216,-4.78755 5.07812,-7.10157 1.35597,-2.31397 2.68224,-4.12279 2.5625,-7.83984 -0.14502,-4.48483 -2.11272,-6.97958 -4.57031,-10.29688 l -1.57226,-2.11914 0.84961,-3.01171 c 0.55185,-1.9695 0.73041,-2.39828 0.67382,-2.42579 0.18066,-0.0487 0.18025,-0.0577 0.51368,-0.13671 5.33076,-1.26222 10.21792,-5.64415 11.43554,-11.13868 1.21762,-5.49448 0.11595,-11.33201 -2.11914,-18.76562 -1.25979,-4.18985 -2.39349,-7.43109 -3.95898,-10.19141 l 8.08984,-8.08984 c 5.3894,3.93863 13.12407,3.50111 17.9707,-1.3457 l 11.0879,-11.08008 c 5.34769,-5.34762 5.34753,-14.230398 0,-19.578128 l -27.7129,-27.710937 c -2.67383,-2.673902 -6.23133,-4.007813 -9.7871,-4.007813 z m 0,11.902344 c 0.45119,5e-6 0.90201,0.196938 1.29882,0.59375 l 27.71875,27.712891 c 0.79377,0.793776 0.79366,1.803993 0,2.597653 l -11.08789,11.08789 c -0.79364,0.79367 -1.80401,0.79367 -2.59765,0 l -0.53516,-0.53515 c 0.56767,-4.16148 -0.71034,-8.54234 -3.86523,-11.69727 L 158.26758,89.175781 c -2.67384,-2.673789 -6.23336,-4.007812 -9.78906,-4.007812 -0.64275,0 -1.28222,0.05924 -1.91993,0.146484 l -0.52929,-0.529297 c -0.79373,-0.793776 -0.79352,-1.811994 0,-2.605468 l 11.08593,-11.082032 c 0.39685,-0.396831 0.8496,-0.593754 1.30079,-0.59375 z m -13.85743,29.775394 13.68555,13.68554 -8.87109,8.8711 c -0.36761,-0.0999 -0.73523,-0.19109 -1.09961,-0.25586 -1.38446,-0.24605 -2.71887,-0.38388 -3.99414,-0.40625 -0.63764,-0.0113 -1.25289,0.001 -1.95703,0.082 -0.39667,0.0457 -1.14748,0.37655 -1.70508,0.53125 -0.45131,-0.21581 -1.72311,-1.03973 -3.38086,-2.72461 -1.65065,-1.678 -1.80328,-1.95202 -1.85156,-1.88281 0.0242,-0.10696 0.005,-0.0456 0.0351,-0.16992 0.65666,-2.72365 0.62372,-5.69966 -0.125,-8.4668 z m -42.07812,4.89258 c 1.78709,0.0304 5.11586,0.47121 10.02734,1.7871 2.94166,0.78821 5.25482,1.63375 7.00196,2.42188 -2.56657,5.18267 -1.72123,11.71804 2.55664,15.99609 l 11.08789,11.08008 c 4.36073,4.36044 11.0648,5.16297 16.29101,2.41211 0.54494,1.36619 1.14425,3.05336 1.78711,5.19141 1.9795,6.58359 2.27049,10.99876 1.89063,12.71289 -0.37987,1.71416 -0.0773,1.4914 -2.47266,2.05859 -0.99014,0.23433 -1.90813,0.42086 -3.10156,0.88672 -1.19343,0.46586 -2.75066,1.42758 -3.80078,2.70117 -2.10026,2.54725 -2.27185,4.50668 -3.08594,7.41211 l -1.63086,5.8457 c -0.50119,1.7839 -0.15012,3.69928 0.95117,5.18946 l 3.32227,4.48047 c 1.07558,1.45185 1.63854,2.82282 1.9375,3.47461 -0.13025,0.39212 -0.31029,0.88886 -0.63867,1.44921 -0.88666,1.5131 -2.31706,3.51184 -3.97852,5.52149 -3.32292,4.01934 -7.82459,8.20347 -10.39453,9.75976 -1.11583,0.67567 -1.12006,0.58225 -1.51953,0.52344 -0.39948,-0.059 -1.62335,-0.48665 -3.69141,-1.99219 -1.78216,-1.29739 -4.13253,-2.83536 -7.07812,-3.04882 -2.9456,-0.21355 -5.02173,0.50915 -8.1875,1.38672 l -6.60743,1.83007 c -1.91466,0.52962 -3.443112,1.9725 -4.082027,3.85352 l -1.423828,4.22265 h -0.0078 c -0.519443,1.53321 -0.995117,2.07471 -1.380859,2.3711 -0.385742,0.29631 -0.959492,0.60412 -2.613281,0.66992 -2.573541,0.10243 -7.373042,-0.76528 -14.121094,-3.01172 -4.213024,-1.40254 -6.143855,-2.87322 -6.673828,-3.59375 -0.529977,-0.72053 -0.774304,-1.21428 -0.125,-3.90625 0.398884,-1.65365 0.789975,-3.25063 0.353516,-5.52148 -0.43646,-2.27086 -2.344033,-4.56825 -3.830078,-5.52149 0.386362,0.24756 -0.57721,-0.46149 -1.425782,-1.24804 -0.848572,-0.7866 -1.862292,-1.78217 -2.738281,-2.71485 -1.622048,-1.72717 -2.819844,-3.11296 -5.107422,-4.23828 -2.287582,-1.12528 -5.455597,-0.9347 -7.167969,-0.40625 -1.830897,0.56481 -2.200522,0.51719 -3.757812,-0.33789 1.408955,0.77375 -0.523934,-0.68415 -1.779297,-3.55859 -1.255359,-2.87445 -2.582515,-7.00818 -3.660156,-11.75977 -1.199199,-5.28767 -1.163013,-7.89841 -1.144531,-8.02344 0.239584,-0.19351 1.011778,-0.68693 2.40625,-1.31445 2.518775,-1.13348 4.874742,-2.05078 6.865234,-4.49609 1.990492,-2.44536 2.496381,-4.67445 3.564453,-7.94336 1.008816,-3.08739 1.787113,-4.88704 1.779297,-7.75782 -0.0079,-2.87077 -2.058592,-5.8562 -3.306641,-7.07812 -0.383225,-0.37531 -1.027528,-1.41892 -1.328125,-2.44336 -0.256478,-0.87417 -0.181616,-1.44238 -0.185547,-1.58789 0.311018,-0.40505 0.778762,-0.9693 1.388672,-1.66016 1.31144,-1.48543 3.137839,-3.39642 5.056641,-5.30078 1.918802,-1.90435 3.937125,-3.81513 5.654297,-5.33008 1.59212,-1.40458 3.023317,-2.4567 3.273437,-2.63476 -0.06077,0.12014 1.054511,-0.19145 2.232422,0.0293 1.403668,0.26267 2.808139,1.11622 2.835938,1.14453 1.274585,1.29573 3.979478,3.17913 6.724609,3.36523 2.745128,0.18595 4.637808,-0.43219 7.544922,-1.19531 l 6.28125,-1.6543 c 1.805158,-0.47489 3.286521,-1.76278 4.007812,-3.48437 l 1.462891,-3.47657 c 1.362177,-3.25088 1.467087,-3.19184 2.486327,-3.44726 0.25481,-0.0639 0.67969,-0.1 1.27539,-0.0898 z m -4.478517,34.36328 c -11.359823,3e-5 -20.699268,9.33169 -20.699219,20.6914 3.1e-5,11.35971 9.339498,20.69915 20.699219,20.69922 11.359807,4e-5 20.699207,-9.33943 20.699217,-20.69922 2e-5,-11.35975 -9.33935,-20.69148 -20.699217,-20.6914 z m -10e-7,8.99609 c 6.555228,-5e-5 11.693638,5.13852 11.693638,11.69363 -2e-5,6.55536 -5.13836,11.70681 -11.693638,11.70676 -6.555225,-5e-5 -18.146362,-10.55186 -11.693628,-11.70676 4.179229,-0.748 8.011876,-7.70097 11.693628,-11.69363 z"
         style="color:#000000;font-style:normal;font-variant:normal;font-weight:normal;font-stretch:normal;font-size:medium;line-height:normal;font-family:sans-serif;font-variant-ligatures:normal;font-variant-position:normal;font-variant-caps:normal;font-variant-numeric:normal;font-variant-alternates:normal;font-feature-settings:normal;text-indent:0;text-align:start;text-decoration:none;text-decoration-line:none;text-decoration-style:solid;text-decoration-color:#000000;letter-spacing:normal;word-spacing:normal;text-transform:none;writing-mode:lr-tb;direction:ltr;text-orientation:mixed;dominant-baseline:auto;baseline-shift:baseline;text-anchor:start;white-space:normal;shape-padding:0;clip-rule:nonzero;display:inline;overflow:visible;visibility:visible;opacity:1;isolation:auto;mix-blend-mode:normal;color-interpolation:sRGB;color-interpolation-filters:linearRGB;solid-color:#000000;solid-opacity:1;vector-effect:none;fill:none;fill-opacity:1;fill-rule:nonzero;stroke:#f2f2f2;stroke-width:24;stroke-linecap:round;stroke-linejoin:round;stroke-miterlimit:4;stroke-dasharray:none;stroke-dashoffset:0;stroke-opacity:1;color-rendering:auto;image-rendering:auto;shape-rendering:auto;text-rendering:auto;enable-background:accumulate" />
      <path
         id="rect4569"
         d="m 33.419004,258.38323 4.399552,-4.39958 c 0.812442,-0.81242 2.120548,-0.81242 2.932986,0 l 2.933042,2.93305 c 0.812443,0.81245 0.812443,2.12054 0,2.93302 l -4.399552,4.39955 c -0.812445,0.81239 -2.120549,0.81239 -2.932997,0 l -2.933039,-2.93304 c -0.812435,-0.81247 -0.812435,-2.12057 8e-6,-2.933 z"
         inkscape:transform-center-y="-13.565193"
         inkscape:transform-center-x="-13.565206"
         style="opacity:1;fill:#a84b38;fill-opacity:1;stroke:#141419;stroke-width:3.17499995;stroke-linecap:round;stroke-linejoin:round;stroke-miterlimit:4;stroke-dasharray:none;stroke-opacity:1"
         inkscape:connector-curvature="0" />
      <path
         id="rect4573"
         d="m 37.514808,249.88787 2.933012,-2.93302 c 0.812453,-0.81246 2.120573,-0.81246 2.933015,0 l 7.332559,7.33254 c 0.812443,0.81247 0.812443,2.12057 -7e-6,2.93301 l -2.933014,2.93301 c -0.812442,0.81247 -2.120565,0.81247 -2.933006,0 l -7.332559,-7.33253 c -0.812443,-0.81247 -0.812443,-2.12059 0,-2.93301 z"
         inkscape:transform-center-y="-20.164481"
         inkscape:transform-center-x="-20.164486"
         style="opacity:1;fill:#a84b38;fill-opacity:1;stroke:#141419;stroke-width:3.17499995;stroke-linecap:round;stroke-linejoin:round;stroke-miterlimit:4;stroke-dasharray:none;stroke-opacity:1"
         inkscape:connector-curvature="0" />
      <path
         sodipodi:nodetypes="ccccccccccccccccccccccccccccccccccccscsc"
         inkscape:connector-curvature="0"
         id="path4500"
         d="m 24.838184,287.83634 c 1.337034,-0.0532 2.08729,-0.66798 2.498268,-1.88103 l 0.378718,-1.11696 1.747882,-0.48509 c 1.642237,-0.45524 1.804945,-0.44315 2.680037,0.19392 1.301854,0.94773 2.133284,1.06995 3.136761,0.46231 1.952804,-1.18258 4.846776,-4.68304 4.810206,-5.81833 -0.01333,-0.41219 -0.336717,-1.07077 -0.898747,-1.82941 l -0.877981,-1.18533 0.432907,-1.54634 c 0.429194,-1.53176 0.443052,-1.54826 1.478502,-1.79347 2.044201,-0.48402 2.42499,-2.20223 1.309885,-5.91095 -0.785696,-2.61308 -1.375207,-3.44981 -2.582327,-3.66439 -0.56448,-0.1003 -1.151157,-0.11059 -1.303308,-0.0229 -0.597834,0.34517 -1.407189,-0.0131 -2.469406,-1.09269 -1.103711,-1.122 -1.109118,-1.13474 -0.893682,-2.02838 0.488184,-2.02485 -0.652561,-3.15932 -4.107872,-4.08516 -3.607884,-0.96672 -4.647428,-0.70601 -5.523127,1.38386 l -0.385815,0.92051 -1.662699,0.43639 c -1.487935,0.39057 -1.723623,0.37411 -2.240541,-0.1514 -0.726986,-0.73945 -2.437544,-1.05941 -3.225368,-0.60405 -1.033523,0.59728 -4.630646,4.16737 -4.833479,4.79701 -0.260731,0.80949 0.109889,2.07331 0.809645,2.75854 0.527902,0.51684 0.528654,0.69876 0.006,2.2983 -0.563918,1.7259 -0.576258,1.74105 -1.903307,2.33823 -1.7334585,0.78006 -1.8950735,1.34008 -1.2309535,4.26841 0.6055815,2.67014 1.4870245,4.68832 2.2243425,5.09324 0.722867,0.39699 1.419281,0.46418 2.226376,0.21521 0.568976,-0.17559 0.828431,-0.0479 1.623297,0.79847 0.52029,0.55396 1.150819,1.13835 1.401034,1.29876 0.351184,0.22527 0.404449,0.50159 0.232923,1.21268 -0.46993,1.94834 0.32053,3.02325 2.841055,3.86235 1.865955,0.62117 3.260905,0.91931 4.300824,0.87797 z m 1.091147,-12.28675 c -2.147642,-1e-5 -3.888653,-1.74103 -3.888659,-3.88868 -9e-6,-2.14762 1.741005,-3.88868 3.888659,-3.88869 2.147662,-1e-5 3.88869,1.74105 3.888687,3.88868 -2e-6,2.14767 -1.741028,3.8887 -3.888687,3.88869 z"
         style="fill:url(#linearGradient4593);fill-opacity:1;stroke:#141419;stroke-width:3.17499995;stroke-linejoin:round;stroke-miterlimit:4;stroke-dasharray:none;stroke-opacity:1" />
      <path
         style="fill:#ff3366;fill-opacity:1;stroke:#141419;stroke-width:3.17499995;stroke-miterlimit:4;stroke-dasharray:none;stroke-opacity:1"
         d="m 54.077003,248.95318 c -1.908393,-0.74638 -4.840938,-2.84626 -5.475793,-3.92098 -0.286047,-0.48426 -0.520097,-1.24001 -0.520097,-1.67944 0,-0.92752 0.783713,-2.56798 1.481066,-3.10015 0.782298,-0.59698 2.844226,-0.47219 3.583897,0.21692 0.763075,0.71091 0.975677,0.75269 0.975677,0.19176 0,-0.64113 1.205131,-2.01776 2.046378,-2.3376 1.063423,-0.40431 2.58683,0.1606 3.563636,1.32147 0.686942,0.81638 0.779111,1.15837 0.666097,2.47161 -0.1597,1.85582 -1.462402,4.59019 -2.959313,6.21164 -1.252954,1.35717 -1.412874,1.3869 -3.361548,0.62477 z"
         id="path5109"
         inkscape:connector-curvature="0" />
    </g>
    <path
       style="font-style:normal;font-variant:normal;font-weight:normal;font-stretch:normal;font-size:medium;line-height:125%;font-family:'SP Marker Font';-inkscape-font-specification:'SP Marker Font';letter-spacing:3.61001945px;word-spacing:0px;fill:url(#linearGradient4748);fill-opacity:1;stroke:#000000;stroke-width:6.3499999;stroke-linecap:round;stroke-linejoin:round;stroke-miterlimit:4;stroke-dasharray:none;stroke-opacity:1"
       d="m 75.781586,259.60175 c -4.91004,-1.03941 -2.642179,5.22696 -3.203946,8.0308 -0.814644,2.61973 -5.945318,1.15182 -8.58894,1.55303 -2.215374,0.13396 -4.279121,-0.0575 -3.28934,-2.84262 -0.165563,-2.4814 1.571063,-7.76282 -2.771857,-5.99471 -1.607587,2.58358 -0.429653,7.0148 -0.942068,10.29136 0.03732,4.14765 0.04581,8.30255 0.30928,12.44236 2.290161,0.32238 4.683567,-0.15888 3.65758,-3.0001 0.245175,-2.43634 -0.902914,-6.30185 0.30042,-7.70966 3.691834,0.33177 7.398676,-0.009 11.079817,-0.30042 -0.04937,3.8186 0.283234,7.63091 0.680909,11.42515 2.840674,0.96867 4.221847,-0.80905 3.347425,-3.47884 -0.106202,-6.78838 0.03309,-13.57934 -0.06773,-20.36674 l -0.511551,-0.0496 z m 42.887234,2.89854 c -2.26357,1.5518 -4.10707,6.16163 -6.03931,6.13626 -1.27269,-2.53669 -5.27267,-7.2635 -6.87803,-3.1667 1.03262,3.21878 6.81017,6.18816 3.15648,9.20993 -1.2391,2.48226 -6.22788,5.6438 -1.99854,7.62047 2.23801,-0.3094 3.86207,-4.8419 6.00404,-6.68758 2.31072,2.63634 4.3891,7.95729 8.50906,4.75836 -2.26375,-2.3972 -4.02906,-5.22083 -6.00276,-7.85637 2.10011,-2.65751 4.33512,-5.21849 6.31258,-7.96695 -0.94897,-0.77485 -1.97134,-1.48954 -3.06352,-2.04742 z m 16.1722,0.60874 c -4.81028,0.0936 -7.50194,5.03713 -8.51179,9.16636 -1.18389,4.0294 1.29085,9.44293 5.93576,9.40814 3.6415,0.2228 7.7465,-1.5672 9.19785,-5.07506 -0.95142,-2.05427 -4.12312,-0.33407 -4.06409,1.77026 -1.90226,3.27707 -7.26841,0.77901 -7.47484,-2.53514 0.54859,-1.78533 4.98382,-1.14805 6.42265,-3.44086 2.23629,-1.90833 4.70927,-6.17025 1.84399,-8.54243 -0.99576,-0.62118 -2.20314,-0.74228 -3.34953,-0.75127 z m -42.29823,1.35548 c -3.554899,0.0462 -7.744957,1.3795 -9.442531,4.73701 -1.215197,4.11063 -0.451107,9.29783 2.861658,12.23954 3.054586,1.80838 7.489267,0.35826 9.365783,-2.56399 -0.294386,3.14378 3.038613,4.0172 4.88891,1.9916 -2.454042,-3.31672 -1.78413,-7.82442 -1.792715,-11.71168 0.197421,-2.06467 0.875151,-5.56525 -2.262049,-3.79812 -1.12765,0.6623 -2.245905,-1.21312 -3.619056,-0.89436 z m 40.5237,0.95395 c 3.54904,1.15863 2.78723,6.7103 -0.45317,7.67709 -4.27255,-0.52776 -1.70107,-5.62435 0.13982,-7.57004 l 0.31335,-0.107 z m -43.277397,0.51211 c 2.779279,0.0297 5.231745,2.73413 3.69538,4.99796 0.153475,3.32525 -0.40426,9.00922 -4.359955,9.60446 -2.837906,-1.93405 -2.70668,-6.11959 -2.589978,-9.234 0.240529,-2.00573 0.654376,-5.2428 3.254553,-5.36842 z"
       id="path4615"
       inkscape:connector-curvature="0" />
    <path
       style="font-style:normal;font-variant:normal;font-weight:normal;font-stretch:normal;font-size:medium;line-height:125%;font-family:'SP Marker Font';-inkscape-font-specification:'SP Marker Font';letter-spacing:3.61001945px;word-spacing:0px;fill:url(#linearGradient4750);fill-opacity:1;stroke:#000000;stroke-width:6.3499999;stroke-linecap:round;stroke-linejoin:round;stroke-miterlimit:4;stroke-dasharray:none;stroke-opacity:1"
       d="m 213.78605,258.49898 c -4.05235,-0.64289 -1.85283,4.74551 -2.51246,7.12405 0.006,5.31101 -0.25336,10.66516 0.42937,15.94231 2.04455,1.08182 5.20196,0.1418 4.00204,-2.87341 0.52056,-2.06398 2.99582,-5.25791 4.63454,-2.13254 2.46267,2.15838 4.88636,4.37561 7.49474,6.3567 2.71533,-0.81078 2.88107,-3.2964 0.21967,-4.32037 -2.49111,-2.06506 -4.77678,-4.36539 -6.96522,-6.7451 2.07004,-2.37275 4.17572,-4.71791 6.15767,-7.16494 -3.3353,-2.51525 -5.47347,1.18557 -7.41717,3.48648 -1.29165,1.10636 -3.56337,4.89976 -4.23212,4.23227 -0.17095,-4.59142 -0.15002,-9.20451 -0.60362,-13.77678 -0.38585,-0.15433 -0.80353,-0.12242 -1.20744,-0.12867 z m -58.54956,0.77722 c -2.78044,0.21264 -7.01729,-0.59566 -5.90611,3.67326 -0.16622,6.58862 -0.12344,13.21647 0.53108,19.77285 1.95882,1.10779 4.38032,1.03372 3.47561,-1.78047 -0.0111,-3.04892 -0.0391,-6.09776 -0.0722,-9.14651 4.13037,0.5897 9.04987,-0.9138 11.26409,-4.65092 1.70903,-3.2329 -1.50471,-6.2839 -4.47554,-7.06059 -1.54796,-0.5267 -3.18334,-0.78744 -4.81696,-0.80762 z m -1.41847,1.71617 c 3.00536,-0.16323 7.23656,1.10345 7.4299,4.66168 -0.32402,3.22933 -6.21791,6.22263 -7.98887,4.02704 0.46658,-2.54825 -0.98083,-7.22823 0.55897,-8.68872 z m 45.2746,2.78071 c 0.37023,1.76525 -3.96732,2.49861 -4.51724,4.61987 -0.008,-1.90593 0.80905,-5.32027 -2.37488,-3.91856 -3.24977,1.44535 -1.00401,6.88951 -1.67433,9.91927 0.22391,2.84143 -0.7909,7.99291 3.70872,7.30494 1.816,-2.33153 1.42093,-7.26923 3.19466,-10.39753 0.84092,-1.48899 2.00743,-6.74361 3.82943,-5.32244 0.7004,4.86989 -0.0705,9.80476 -0.0624,14.69676 1.84955,0.71801 4.68078,1.51053 3.91604,-1.54511 0.09,-4.4389 0.73031,-8.9926 -0.18978,-13.36948 -0.77401,-2.5487 -3.83848,-1.85894 -5.83023,-1.98772 z m -16.27582,0.57154 c -4.54094,-1.05401 -2.26353,3.98759 -3.21444,6.64939 -1.03834,2.89006 -1.01169,7.58727 -4.48307,8.5471 -3.25077,-0.86752 -2.01302,-5.27347 -1.97058,-7.82804 -0.45025,-2.33349 3.06272,-7.92929 -1.25898,-7.35561 -2.86482,0.38282 -1.80904,5.06675 -2.72759,7.31673 -0.37299,3.14129 -0.39212,7.51353 2.96089,9.04643 2.99486,1.79872 7.73213,-0.41958 8.81922,-1.75218 -1.25199,3.24785 5.49523,3.27664 3.73478,0.0116 -0.27763,-4.80508 -0.17928,-9.63959 -0.52272,-14.43232 -0.41648,-0.21033 -0.88908,-0.17576 -1.33751,-0.20309 z"
       id="path4617"
       inkscape:connector-curvature="0" />
    <path
       style="font-style:normal;font-variant:normal;font-weight:normal;font-stretch:normal;font-size:medium;line-height:125%;font-family:'SP Marker Font';-inkscape-font-specification:'SP Marker Font';letter-spacing:3.61001945px;word-spacing:0px;fill:url(#linearGradient4627);fill-opacity:1;stroke:none;stroke-width:6.3499999;stroke-linecap:round;stroke-linejoin:round;stroke-miterlimit:4;stroke-dasharray:none;stroke-opacity:1"
       d="m 75.781586,259.60175 c -0.844142,-0.004 -2.42769,0.10491 -2.42769,0.10491 0,0 -0.525963,0.3593 -0.587849,0.55294 -0.185653,0.44261 -0.123931,5.86478 -0.216758,8.46511 -2.011248,0.3043 -6.590649,0.8021 -11.943665,0.22118 0.09283,-2.98762 0.370928,-8.57561 0.154331,-8.74159 -0.278481,-0.2213 -3.21774,0.0553 -3.403393,0.35967 -0.154713,0.33196 -0.216687,6.08588 -0.340455,8.38192 -0.123771,2.29604 0.154837,14.13608 0.278608,14.13608 0.123768,0 3.558229,-2.5e-4 3.681997,-0.44286 0.09283,-0.33196 -0.185473,-7.08166 -0.309241,-10.31823 1.454288,0.13831 3.80589,0.27681 5.940909,0.13849 2.165961,-0.13831 4.207979,-0.19393 5.724152,-0.38758 -0.09283,4.39844 0.588082,10.59525 0.680909,11.42515 0.464134,0.33195 3.341741,0.0553 3.496454,-0.35967 -0.340366,-0.63626 -0.09299,-23.3476 -0.216758,-23.48591 -0.03094,-0.0346 -0.230167,-0.0483 -0.511551,-0.0496 z m 42.887234,2.89854 c -0.83544,0.63625 -3.12534,3.45809 -5.63167,6.69468 -2.1969,-3.01528 -4.05318,-5.47743 -4.39354,-5.50509 -0.95921,-0.0277 -3.06348,0.96822 -3.12536,1.30018 0.40225,1.02353 2.63032,4.1774 5.04381,7.46931 -3.03234,4.03881 -5.72445,7.801 -5.69351,7.91166 0.031,0.27663 2.10422,2.15739 2.72306,2.32337 0.34037,-0.77457 2.66081,-3.76216 5.32185,-7.08173 2.4135,3.12592 4.48652,5.75386 4.6103,5.83685 0.30942,0.13831 3.77498,-0.69121 3.89876,-1.07849 -0.61886,-0.38729 -3.27984,-4.06653 -6.00276,-7.85637 3.31083,-4.09414 6.37446,-7.8563 6.31258,-7.96695 -0.12377,-0.22131 -2.97069,-2.13041 -3.06352,-2.04742 z m 16.1722,0.60874 c -6.25035,0 -8.78709,8.74153 -8.78709,11.03757 0,2.3237 0.89685,7.552 6.74494,7.552 5.8481,0 8.5402,-4.20492 8.66397,-5.09013 0.12377,-0.88522 -0.58779,-0.99579 -3.156,-0.58084 -0.77356,3.26425 -2.35188,3.90053 -3.00167,3.90053 -0.61884,0 -5.22921,-0.0276 -5.47676,-4.95163 0.37132,0 0.80458,-0.0555 1.33061,-0.1385 5.16736,-0.8299 7.39527,-4.92362 7.79752,-5.97482 0.40225,-1.0512 2.16576,-5.75418 -4.11552,-5.75418 z m -42.29823,1.35548 c -2.4135,0 -6.280908,0.16586 -8.539696,3.29179 -2.289728,3.15359 -1.175996,14.46785 4.269849,14.46785 3.744017,0 5.786123,-1.43834 7.054757,-3.34708 0.402249,1.7151 0.866658,2.8491 1.021364,2.98741 0.464137,0.35962 4.331676,-0.44255 3.867546,-0.99581 -3.217998,-3.15359 -1.237597,-15.90625 -1.639847,-15.93391 -1.021107,-0.0553 -2.351573,0.30439 -3.032305,0.71934 -0.928265,-0.69158 -1.980573,-1.18959 -3.001668,-1.18959 z m 40.5237,0.95395 c 0.049,0.002 0.0941,0.0159 0.13468,0.0419 4.57946,2.29604 1.0521,7.63519 -0.58785,7.63519 -0.92826,0 -1.88715,-0.83001 -2.53693,-1.54925 0.63818,-3.57892 2.25504,-6.16093 2.9901,-6.12779 z m -43.277397,0.51211 c 2.258787,0 3.589588,1.4942 4.45597,3.2923 -0.09283,0.083 -0.186121,0.11059 -0.186121,0.11059 -0.216595,0.16598 -0.742597,-0.47049 -0.525999,2.57245 0.247536,3.04295 -1.639627,8.6863 -3.991241,8.6863 -2.320673,0 -3.094152,-5.22846 -3.094152,-7.27553 0,-2.04707 0.247314,-7.38611 3.341543,-7.38611 z"
       id="path4716"
       inkscape:connector-curvature="0"
       sodipodi:nodetypes="ccccccccscccccccccccccccccccccsssccscccsscscccccsccsccscccsss" />
    <path
       sodipodi:nodetypes="ccccccsccccccccccccccsscscccccsccsccccscccscccscccccscccccccccccc"
       inkscape:connector-curvature="0"
       style="font-style:normal;font-variant:normal;font-weight:normal;font-stretch:normal;font-size:medium;line-height:125%;font-family:'SP Marker Font';-inkscape-font-specification:'SP Marker Font';letter-spacing:3.61001945px;word-spacing:0px;fill:url(#linearGradient4629);fill-opacity:1;stroke:none;stroke-width:6.3499999;stroke-linecap:round;stroke-linejoin:round;stroke-miterlimit:4;stroke-dasharray:none;stroke-opacity:1"
       d="m 213.78605,258.49898 c -0.95365,0.0143 -2.11913,0.14616 -2.19648,0.26717 -0.24755,0.38728 0.15483,23.04324 0.2786,23.12623 0.0928,0.11066 3.58909,-0.11073 3.8057,-0.30437 0.031,-0.0553 0.0312,-1.49397 0.0312,-3.67936 0.40225,-0.44261 1.45412,-1.60447 2.7537,-3.07062 2.78481,2.62799 9.15892,8.07806 9.37551,8.07806 0.27849,0 2.0733,-1.41122 2.19707,-1.52187 0.15471,-0.083 0.34036,-0.85736 0.0618,-1.21698 -3.68213,-2.65565 -7.14789,-6.30721 -9.00442,-8.32662 3.0014,-3.40256 6.06484,-6.9713 6.15767,-7.16494 0.21659,-0.41494 -3.4654,-0.91267 -3.682,-0.80201 -0.12377,0.083 -4.73443,5.47711 -7.95243,9.12864 -0.15471,-6.4455 -0.43283,-14.21867 -0.61848,-14.38466 -0.13924,-0.10373 -0.6353,-0.13726 -1.20749,-0.12867 z m -58.54956,0.77722 c -0.89694,-0.01 -1.79138,0.058 -2.65197,0.20928 -0.92827,0 -2.72322,0.0549 -2.93981,0.24857 -0.86638,4.06647 -0.12361,22.62864 0.21675,22.98826 0.37131,0.35962 3.063,0.88535 3.46524,0.66404 0.031,-0.55326 1e-5,-6.03074 -0.0618,-11.59102 0.71168,0.083 1.5783,0.13849 2.53751,0.13849 2.25879,0 9.18997,-2.10254 9.18997,-6.80527 0,-3.50111 -4.91239,-5.80073 -9.75585,-5.85235 z m -1.41847,1.71617 c 0.66139,-0.006 1.35777,0.0141 1.98435,0.0971 2.10408,0.24897 5.44555,1.63229 5.44555,4.56458 0,2.545 -4.76505,5.47736 -7.98306,4.73046 -0.031,-3.76218 -0.0615,-7.38598 -0.0925,-9.37772 0.20886,-0.007 0.42519,-0.0123 0.64565,-0.0145 z m 45.2746,2.78071 c -0.42922,-0.14307 -4.78767,1.93833 -4.51724,4.61987 0,-2.07474 0.0306,-3.62421 0.0306,-3.81785 0.0619,-0.66392 -3.46539,8e-5 -3.682,0.30437 -0.12376,0.19365 -0.15458,15.60186 0.27861,16.09979 0.4332,0.5256 2.75382,0.66402 3.0323,0.71934 0.12377,0 0.24733,-0.11049 0.37109,-0.27647 0.12378,0.0277 0.2476,0.0279 0.40231,0.0279 0.21659,-5.56029 4.30104,-16.1277 5.81721,-16.1277 1.48523,0 0.15449,15.27007 0.37109,15.35306 0.21659,0.083 3.58971,1.05085 3.74442,0.60824 0.12377,-0.33196 0.83537,-12.64174 0.1237,-15.07609 -0.71167,-2.545 -2.10433,-2.43447 -5.97212,-2.43447 z m -16.27582,0.57154 c -1.13495,-0.0203 -2.62671,0.10962 -2.99415,0.36897 0.15472,1.21717 0.30951,4.9242 -0.6497,8.10545 -1.20674,3.95582 -1.91864,6.72207 -4.05366,6.72207 -1.70183,0 -2.16554,-1.74299 -2.19649,-4.03903 -0.031,-3.78984 1.02102,-8.99046 1.11385,-9.79269 0.15472,-1.24484 -0.0932,-1.13399 -0.30982,-1.21698 -0.3713,-0.16598 -3.4344,-0.30448 -3.2797,0.33176 0.12378,0.58093 -1.98038,6.99894 -1.3306,11.17607 0.68073,4.20479 2.59945,5.2834 6.90043,5.2834 2.44444,0 3.99127,-1.43814 4.91954,-2.79363 0,1.2725 0.12386,2.62795 0.34045,2.71094 0.3713,0.083 3.68235,0.0549 3.58952,-0.22169 -0.30942,-0.52559 -0.52624,-14.49538 -0.61906,-15.57424 0,-0.24897 -0.0312,-0.387 -0.0931,-0.49764 0.031,-0.19365 0,-0.33201 0,-0.35967 -0.10443,-0.12449 -0.65657,-0.19094 -1.33755,-0.20309 z"
       id="path4718" />
  </g>
</svg>
